<?xml version="1.0" encoding="utf-8"?>
<!-- Generator: Adobe Illustrator 27.6.1, SVG Export Plug-In . SVG Version: 6.00 Build 0)  -->
<svg version="1.1" id="Ebene_1" xmlns="http://www.w3.org/2000/svg" xmlns:xlink="http://www.w3.org/1999/xlink" x="0px" y="0px"
	 viewBox="0 0 595.28 841.89" style="0 0 595.28 841.89;" xml:space="preserve">
<style type="text/css">
	.st0{fill:#5692CE;}
	.st1{clip-path:url(#SVGID_00000034090771900463485100000016440651175351140229_);fill:#F39869;}
	.st2{fill:#FCC452;}
	.st3{fill:#39B6A9;}
	.st4{fill:#8788C1;}
	.st5{fill:#EC5F6C;}
	.st6{clip-path:url(#SVGID_00000098924184936766993190000000677027998118993832_);fill:#5692CE;}
	.st7{clip-path:url(#SVGID_00000098924184936766993190000000677027998118993832_);fill:none;stroke:#5692CE;stroke-miterlimit:10;}
	.st8{clip-path:url(#SVGID_00000098924184936766993190000000677027998118993832_);fill:#FFFFFF;}
</style>
<rect x="228.49" y="342.6" class="st0" width="110.58" height="110.59"/>
<g>
	<defs>
		<rect id="SVGID_1_" x="228.49" y="342.6" width="110.58" height="110.59"/>
	</defs>
	<clipPath id="SVGID_00000076567074135922747440000013456403156797369789_">
		<use xlink:href="#SVGID_1_"  style="overflow:visible;"/>
	</clipPath>
	<path style="clip-path:url(#SVGID_00000076567074135922747440000013456403156797369789_);fill:#F39869;" d="M221.54,405.83
		l20.13,4.82l4.54-17.29l-7.65-53.29c0,0-20.98-1.13-21.54-1.13C216.44,338.93,221.54,405.83,221.54,405.83"/>
</g>
<polygon class="st2" points="252.54,342.6 258.96,367.84 294.11,362.74 323.76,342.6 "/>
<polygon class="st3" points="303.46,367.28 305.45,382.02 339.07,411.6 339.07,351.61 "/>
<polygon class="st4" points="300.63,423.69 285.23,453.18 339.07,453.18 339.07,431.01 317.92,410.08 "/>
<polygon class="st5" points="228.49,453.18 277.59,453.18 284.75,439.28 272.28,429.64 245.92,423.12 228.49,420.99 "/>
<g>
	<defs>
		<rect id="SVGID_00000109751602036307228270000012476363841629994639_" x="228.49" y="342.6" width="110.58" height="110.59"/>
	</defs>
	<clipPath id="SVGID_00000129165911174372279600000015409033745456235956_">
		<use xlink:href="#SVGID_00000109751602036307228270000012476363841629994639_"  style="overflow:visible;"/>
	</clipPath>
	<path style="clip-path:url(#SVGID_00000129165911174372279600000015409033745456235956_);fill:#5692CE;" d="M296.15,449.38
		l-16.5,32.18c-0.6,1.18-2.14,1.49-3.15,0.65c-3.24-2.71-9.59-8.03-12.19-10.39c-0.7-0.63-0.88-1.66-0.43-2.5
		c0.32-0.6,13.63-26.4,14.24-27.43c0.02,0.01,0.03,0.02,0.04,0.02c1.11,0.61,2.04,1.08,2.84,1.45c0.1,0.05,0.19,0.09,0.28,0.12
		c0.14,0.06,0.28,0.12,0.43,0.18l8.44,3.44l1.73,0.7l3.25,1.31C295.47,449.26,295.81,449.34,296.15,449.38"/>
	
		<path style="clip-path:url(#SVGID_00000129165911174372279600000015409033745456235956_);fill:none;stroke:#5692CE;stroke-miterlimit:10;" d="
		M296.15,449.38l-16.5,32.18c-0.6,1.18-2.14,1.49-3.15,0.65c-3.24-2.71-9.59-8.03-12.19-10.39c-0.7-0.63-0.88-1.66-0.43-2.5
		c0.32-0.6,13.63-26.4,14.24-27.43c0.02,0.01,0.03,0.02,0.04,0.02c1.11,0.61,2.04,1.08,2.84,1.45c0.1,0.05,0.19,0.09,0.28,0.12
		c0.14,0.06,0.28,0.12,0.43,0.18l8.44,3.44l1.73,0.7l3.25,1.31C295.47,449.26,295.81,449.34,296.15,449.38"/>
	<path style="clip-path:url(#SVGID_00000129165911174372279600000015409033745456235956_);fill:#5692CE;" d="M278.45,442.98
		c-1.56,2.95-7.48,14.4-10.83,20.88c-1.7,3.29-2.93,5.67-3.03,5.85c-0.27,0.51-0.17,1.14,0.26,1.52c2.55,2.3,8.71,7.49,12.16,10.37
		c0.29,0.25,0.68,0.34,1.06,0.27c0.38-0.08,0.69-0.32,0.87-0.66l16.04-31.28c-0.04-0.02-0.09-0.03-0.13-0.05l-13.42-5.45
		c-0.17-0.07-0.32-0.13-0.46-0.2c-0.08-0.03-0.18-0.08-0.29-0.13C280.03,443.8,279.3,443.43,278.45,442.98 M277.82,483.49
		c-0.66,0-1.31-0.23-1.82-0.67c-3.46-2.89-9.65-8.08-12.21-10.41c-0.98-0.88-1.22-2.31-0.6-3.47c0.1-0.18,1.32-2.54,3.01-5.82
		c5.47-10.57,10.84-20.95,11.24-21.64l0.39-0.66l0.68,0.36c1.15,0.64,2.06,1.1,2.83,1.45l0.27,0.12c0.15,0.07,0.28,0.12,0.42,0.18
		l13.42,5.45c0.26,0.1,0.52,0.17,0.79,0.2l1.16,0.12l-17.03,33.22c-0.4,0.78-1.12,1.33-1.97,1.5
		C278.2,483.47,278.01,483.49,277.82,483.49"/>
	
		<path style="clip-path:url(#SVGID_00000129165911174372279600000015409033745456235956_);fill:none;stroke:#5692CE;stroke-miterlimit:10;" d="
		M278.45,442.98c-1.56,2.95-7.48,14.4-10.83,20.88c-1.7,3.29-2.93,5.67-3.03,5.85c-0.27,0.51-0.17,1.14,0.26,1.52
		c2.55,2.3,8.71,7.49,12.16,10.37c0.29,0.25,0.68,0.34,1.06,0.27c0.38-0.08,0.69-0.32,0.87-0.66l16.04-31.28
		c-0.04-0.02-0.09-0.03-0.13-0.05l-13.42-5.45c-0.17-0.07-0.32-0.13-0.46-0.2c-0.08-0.03-0.18-0.08-0.29-0.13
		C280.03,443.8,279.3,443.43,278.45,442.98z M277.82,483.49c-0.66,0-1.31-0.23-1.82-0.67c-3.46-2.89-9.65-8.08-12.21-10.41
		c-0.98-0.88-1.22-2.31-0.6-3.47c0.1-0.18,1.32-2.54,3.01-5.82c5.47-10.57,10.84-20.95,11.24-21.64l0.39-0.66l0.68,0.36
		c1.15,0.64,2.06,1.1,2.83,1.45l0.27,0.12c0.15,0.07,0.28,0.12,0.42,0.18l13.42,5.45c0.26,0.1,0.52,0.17,0.79,0.2l1.16,0.12
		l-17.03,33.22c-0.4,0.78-1.12,1.33-1.97,1.5C278.2,483.47,278.01,483.49,277.82,483.49z"/>
	<path style="clip-path:url(#SVGID_00000129165911174372279600000015409033745456235956_);fill:#5692CE;" d="M318.22,399.54
		c0.02,0.18,0.1,0.34,0.24,0.45c0.29,0.23,0.7,0.19,0.94-0.07l5.97-6.87l0.1-0.11l0.06-0.07c0.16-0.17,0.34-0.32,0.54-0.43
		c0.28-0.16,0.59-0.26,0.92-0.29c0.6-0.06,1.18,0.12,1.64,0.49c0.46,0.37,0.74,0.89,0.8,1.47c0.05,0.48-0.07,0.95-0.32,1.36
		c-0.05,0.09-0.11,0.17-0.18,0.25l-0.41,0.47l-5.64,6.49c-0.12,0.14-0.17,0.32-0.15,0.5c0.02,0.18,0.1,0.34,0.24,0.45
		c0.28,0.23,0.69,0.2,0.94-0.07l4.39-5.23l0.06-0.07c0.4-0.44,0.94-0.69,1.49-0.75c0.55-0.06,1.12,0.08,1.59,0.43
		c0.3,0.22,0.53,0.51,0.68,0.83c0.09,0.2,0.15,0.42,0.18,0.65c0.02,0.18,0.02,0.35,0,0.53v0c-0.05,0.41-0.22,0.79-0.5,1.12
		l-2.25,2.69l-1.2,1.43l-5.88,6.96c-0.09,0.1-0.18,0.21-0.28,0.32c-0.06,0.07-0.13,0.15-0.2,0.22c-0.6,0.65-1.34,1.38-2.17,2.16
		c-0.22,0.21-0.45,0.42-0.68,0.63c-0.15,0.14-0.3,0.28-0.46,0.41c-2.5,2.26-5.45,4.71-7.49,6.4c-0.93,0.77-1.55,1.29-1.91,1.6
		c-0.2,0.17-0.36,0.38-0.48,0.62l-1.47,2.89c-0.06-0.03-0.12-0.06-0.18-0.09l-6.28-2.69l-1.75-0.71c-0.6-0.24-1.2-0.49-1.79-0.74
		c-0.66-0.27-1.32-0.54-1.98-0.81l-0.36-0.15c-0.62-0.25-1.26-0.51-1.9-0.75c-0.17-0.06-0.34-0.12-0.5-0.18
		c-0.23-0.08-0.45-0.15-0.64-0.23c0.02-0.12,0.04-0.27,0.08-0.48l0.03-0.14c0.01-0.07,0.03-0.14,0.04-0.2
		c0.01-0.05,0.02-0.11,0.03-0.16c0.08-0.32,0.67-1.29,0.97-1.61c0.4-0.43,0.59-0.95,0.55-1.47l0,0c1.21-1.87,2.08-3.18,2.39-3.6
		c1.65-2.17,3.04-4.6,3.56-7.3c0.38-1.93,0.42-3.91,0.39-5.87c-0.01-0.64-0.02-1.2,0.01-1.67c0.01-1.28,0.69-2.95,1.26-3.39
		c0.21-0.16,0.41-0.16,0.56,0.11c0.29,0.54,1.24,1.68,1.82,2.02c0.1,0.06,0.21,0.12,0.33,0.19c0.57,0.33,1.26,0.68,1.7,0.61
		c0.09-0.02,0.18-0.05,0.25-0.11c0.52-0.44,0.9-1.02,1.32-1.55c0.49-0.62,1.01-1.23,1.52-1.84c0.88-1.04,1.76-2.07,2.64-3.11
		l1.2-1.43l4.42-5.05l0.06-0.07c0.03-0.03,0.06-0.06,0.09-0.09c0.07-0.07,0.15-0.14,0.24-0.2l0.07-0.04
		c0.16-0.11,0.33-0.2,0.51-0.26c0.18-0.07,0.37-0.11,0.57-0.13c0.03,0,0.07-0.01,0.1-0.01c0.02,0,0.04,0,0.06,0v0
		c0.37-0.01,0.72,0.07,1.04,0.22c0.17,0.08,0.31,0.17,0.44,0.28c0.17,0.14,0.31,0.29,0.42,0.45l0.03,0.05
		c0.4,0.61,0.46,1.35,0.2,1.99c-0.08,0.21-0.2,0.41-0.36,0.59l-0.17,0.2l-6.41,7.42c-0.12,0.15-0.17,0.32-0.16,0.5
		c0.02,0.18,0.11,0.34,0.24,0.45c0.28,0.22,0.69,0.19,0.93-0.07c0.01-0.01,2.65-3.01,6.34-7.36c0.2-0.23,0.4-0.47,0.6-0.71
		c0.18-0.21,0.36-0.42,0.54-0.64l0.06-0.07c0.82-0.9,2.24-0.98,3.16-0.18c0.9,0.78,0.99,2.13,0.19,3.07l-0.81,0.95l-0.61,0.71l0,0
		l-6,6.98C318.25,399.19,318.2,399.36,318.22,399.54"/>
	
		<path style="clip-path:url(#SVGID_00000129165911174372279600000015409033745456235956_);fill:none;stroke:#5692CE;stroke-miterlimit:10;" d="
		M318.22,399.54c0.02,0.18,0.1,0.34,0.24,0.45c0.29,0.23,0.7,0.19,0.94-0.07l5.97-6.87l0.1-0.11l0.06-0.07
		c0.16-0.17,0.34-0.32,0.54-0.43c0.28-0.16,0.59-0.26,0.92-0.29c0.6-0.06,1.18,0.12,1.64,0.49c0.46,0.37,0.74,0.89,0.8,1.47
		c0.05,0.48-0.07,0.95-0.32,1.36c-0.05,0.09-0.11,0.17-0.18,0.25l-0.41,0.47l-5.64,6.49c-0.12,0.14-0.17,0.32-0.15,0.5
		c0.02,0.18,0.1,0.34,0.24,0.45c0.28,0.23,0.69,0.2,0.94-0.07l4.39-5.23l0.06-0.07c0.4-0.44,0.94-0.69,1.49-0.75
		c0.55-0.06,1.12,0.08,1.59,0.43c0.3,0.22,0.53,0.51,0.68,0.83c0.09,0.2,0.15,0.42,0.18,0.65c0.02,0.18,0.02,0.35,0,0.53v0
		c-0.05,0.41-0.22,0.79-0.5,1.12l-2.25,2.69l-1.2,1.43l-5.88,6.96c-0.09,0.1-0.18,0.21-0.28,0.32c-0.06,0.07-0.13,0.15-0.2,0.22
		c-0.6,0.65-1.34,1.38-2.17,2.16c-0.22,0.21-0.45,0.42-0.68,0.63c-0.15,0.14-0.3,0.28-0.46,0.41c-2.5,2.26-5.45,4.71-7.49,6.4
		c-0.93,0.77-1.55,1.29-1.91,1.6c-0.2,0.17-0.36,0.38-0.48,0.62l-1.47,2.89c-0.06-0.03-0.12-0.06-0.18-0.09l-6.28-2.69l-1.75-0.71
		c-0.6-0.24-1.2-0.49-1.79-0.74c-0.66-0.27-1.32-0.54-1.98-0.81l-0.36-0.15c-0.62-0.25-1.26-0.51-1.9-0.75
		c-0.17-0.06-0.34-0.12-0.5-0.18c-0.23-0.08-0.45-0.15-0.64-0.23c0.02-0.12,0.04-0.27,0.08-0.48l0.03-0.14
		c0.01-0.07,0.03-0.14,0.04-0.2c0.01-0.05,0.02-0.11,0.03-0.16c0.08-0.32,0.67-1.29,0.97-1.61c0.4-0.43,0.59-0.95,0.55-1.47l0,0
		c1.21-1.87,2.08-3.18,2.39-3.6c1.65-2.17,3.04-4.6,3.56-7.3c0.38-1.93,0.42-3.91,0.39-5.87c-0.01-0.64-0.02-1.2,0.01-1.67
		c0.01-1.28,0.69-2.95,1.26-3.39c0.21-0.16,0.41-0.16,0.56,0.11c0.29,0.54,1.24,1.68,1.82,2.02c0.1,0.06,0.21,0.12,0.33,0.19
		c0.57,0.33,1.26,0.68,1.7,0.61c0.09-0.02,0.18-0.05,0.25-0.11c0.52-0.44,0.9-1.02,1.32-1.55c0.49-0.62,1.01-1.23,1.52-1.84
		c0.88-1.04,1.76-2.07,2.64-3.11l1.2-1.43l4.42-5.05l0.06-0.07c0.03-0.03,0.06-0.06,0.09-0.09c0.07-0.07,0.15-0.14,0.24-0.2
		l0.07-0.04c0.16-0.11,0.33-0.2,0.51-0.26c0.18-0.07,0.37-0.11,0.57-0.13c0.03,0,0.07-0.01,0.1-0.01c0.02,0,0.04,0,0.06,0v0
		c0.37-0.01,0.72,0.07,1.04,0.22c0.17,0.08,0.31,0.17,0.44,0.28c0.17,0.14,0.31,0.29,0.42,0.45l0.03,0.05
		c0.4,0.61,0.46,1.35,0.2,1.99c-0.08,0.21-0.2,0.41-0.36,0.59l-0.17,0.2l-6.41,7.42c-0.12,0.15-0.17,0.32-0.16,0.5
		c0.02,0.18,0.11,0.34,0.24,0.45c0.28,0.22,0.69,0.19,0.93-0.07c0.01-0.01,2.65-3.01,6.34-7.36c0.2-0.23,0.4-0.47,0.6-0.71
		c0.18-0.21,0.36-0.42,0.54-0.64l0.06-0.07c0.82-0.9,2.24-0.98,3.16-0.18c0.9,0.78,0.99,2.13,0.19,3.07l-0.81,0.95l-0.61,0.71l0,0
		l-6,6.98C318.25,399.19,318.2,399.36,318.22,399.54"/>
	<path style="clip-path:url(#SVGID_00000129165911174372279600000015409033745456235956_);fill:#5692CE;" d="M305.38,397.38
		C305.38,397.38,305.38,397.38,305.38,397.38C305.38,397.38,305.38,397.38,305.38,397.38 M323.47,403.2L323.47,403.2L323.47,403.2z
		 M292.06,420.32l0.15,0.03l0.01-0.03L292.06,420.32z M292.83,420.53c0.21,0.07,0.36,0.12,0.52,0.18c0.65,0.24,1.3,0.5,1.93,0.76
		l5.88,2.41l5.79,2.48l1.12-2.21c0.16-0.33,0.39-0.61,0.67-0.86c0.36-0.31,0.99-0.83,1.93-1.61c1.98-1.64,4.97-4.12,7.47-6.38
		l0.45-0.41c0.23-0.21,0.45-0.42,0.67-0.63c0.87-0.81,1.58-1.53,2.13-2.12l0.19-0.21c0.1-0.11,0.18-0.21,0.26-0.3l9.33-11.08
		c0.18-0.21,0.28-0.45,0.32-0.71c0.02-0.11,0.02-0.22,0-0.33c-0.02-0.15-0.05-0.29-0.11-0.42c-0.09-0.2-0.24-0.38-0.43-0.52
		c-0.29-0.21-0.65-0.31-1.02-0.27c-0.38,0.04-0.73,0.21-0.98,0.49l-4.43,5.27c-0.55,0.61-1.45,0.67-2.06,0.17
		c-0.31-0.25-0.49-0.61-0.53-1c-0.04-0.39,0.08-0.77,0.33-1.08l6.07-6.98c0.03-0.04,0.07-0.09,0.1-0.14
		c0.17-0.27,0.24-0.56,0.21-0.86c-0.04-0.37-0.22-0.69-0.51-0.93c-0.3-0.24-0.67-0.36-1.07-0.32c-0.21,0.02-0.41,0.08-0.6,0.19
		c-0.13,0.08-0.25,0.17-0.35,0.28l-6.12,7.04c-0.54,0.58-1.42,0.65-2.04,0.17c-0.32-0.26-0.5-0.61-0.54-1v0
		c-0.04-0.39,0.08-0.78,0.33-1.08l7.43-8.65c0.5-0.6,0.46-1.46-0.11-1.95c-0.6-0.52-1.51-0.47-2.05,0.12l-1.18,1.4
		c-3.71,4.38-6.35,7.36-6.36,7.38c-0.52,0.57-1.41,0.63-2.02,0.16c-0.31-0.26-0.5-0.61-0.54-0.99c-0.04-0.39,0.08-0.78,0.33-1.09
		l6.6-7.64c0.09-0.11,0.17-0.23,0.22-0.37c0.17-0.41,0.12-0.88-0.12-1.25c-0.09-0.14-0.18-0.23-0.29-0.32
		c-0.08-0.07-0.17-0.12-0.29-0.18c-0.2-0.1-0.42-0.15-0.66-0.14l-0.11,0c-0.13,0.01-0.25,0.04-0.37,0.08
		c-0.12,0.04-0.23,0.1-0.32,0.17l-0.09,0.06c-0.01,0.01-0.07,0.05-0.11,0.1l-0.11,0.12l-8.56,9.94c-0.4,0.48-0.81,0.95-1.19,1.45
		c-0.1,0.13-0.2,0.26-0.29,0.38c-0.33,0.44-0.67,0.9-1.14,1.29c-0.18,0.15-0.39,0.25-0.63,0.29c-0.65,0.11-1.36-0.2-2.23-0.7
		l-0.33-0.19c-0.57-0.33-1.3-1.14-1.77-1.8c-0.3,0.55-0.65,1.54-0.65,2.37c-0.03,0.49-0.02,1.04-0.01,1.65
		c0.02,1.92-0.01,3.99-0.41,6.03c-0.48,2.48-1.69,4.97-3.71,7.63c-0.2,0.26-0.74,1.05-2.23,3.34c-0.02,0.65-0.29,1.28-0.77,1.79
		c-0.22,0.23-0.71,1.05-0.78,1.27l-0.01,0.05l-0.62-0.01c0.08,0.03,0.16,0.06,0.24,0.09l0.35,0.08L292.83,420.53z M307.67,428.48
		l-0.86-0.44l-12.14-5.08c-0.61-0.25-1.24-0.51-1.88-0.74c-0.15-0.06-0.29-0.1-0.43-0.15c-0.31-0.11-0.54-0.18-0.74-0.27l-0.57-0.23
		l0.08-0.61c0.02-0.13,0.05-0.3,0.09-0.52l0.11-0.54c0.12-0.48,0.8-1.58,1.17-1.97c0.24-0.25,0.36-0.56,0.33-0.86l-0.02-0.27
		l0.15-0.23c1.29-2,2.11-3.23,2.43-3.65c1.86-2.46,2.98-4.74,3.42-6.97c0.37-1.9,0.4-3.87,0.38-5.71c-0.01-0.66-0.02-1.24,0.01-1.72
		c0.01-1.44,0.76-3.35,1.57-3.97c0.39-0.3,0.74-0.3,0.97-0.25c0.23,0.05,0.55,0.19,0.78,0.61c0.26,0.48,1.12,1.48,1.51,1.71
		l0.32,0.19c0.69,0.39,0.99,0.49,1.12,0.51c0.29-0.27,0.54-0.6,0.81-0.95c0.1-0.14,0.21-0.28,0.31-0.41c0.39-0.5,0.81-1,1.23-1.49
		l4.15-4.9l4.5-5.14c0.04-0.04,0.08-0.09,0.13-0.13c0.09-0.09,0.2-0.18,0.31-0.26l0.1-0.07c0.18-0.13,0.42-0.25,0.66-0.34
		c0.25-0.09,0.51-0.15,0.77-0.18c0.07-0.01,0.18-0.01,0.27-0.01c0.49,0,0.95,0.1,1.35,0.3c0.23,0.12,0.43,0.24,0.6,0.38
		c0.22,0.18,0.42,0.39,0.57,0.61l0.06,0.09c0.46,0.69,0.59,1.57,0.36,2.38l0.17-0.2c1.13-1.23,3.05-1.34,4.29-0.25
		c1.23,1.07,1.36,2.91,0.28,4.19l-0.68,0.79c0.36-0.2,0.76-0.32,1.18-0.36c0.81-0.08,1.6,0.16,2.22,0.67
		c0.63,0.5,1.02,1.22,1.09,2.02c0.06,0.66-0.09,1.31-0.44,1.87c-0.07,0.11-0.15,0.22-0.24,0.33l-0.59,0.68
		c0.26-0.1,0.53-0.16,0.8-0.19c0.78-0.08,1.54,0.12,2.15,0.58c0.4,0.3,0.72,0.69,0.92,1.14c0.13,0.29,0.21,0.59,0.25,0.9
		c0.03,0.24,0.03,0.49-0.01,0.73c-0.07,0.55-0.3,1.08-0.68,1.52l-9.33,11.08c-0.09,0.11-0.19,0.22-0.29,0.34l-0.21,0.23
		c-0.57,0.62-1.32,1.36-2.21,2.2c-0.22,0.21-0.45,0.42-0.69,0.64l-0.46,0.42c-2.52,2.28-5.53,4.77-7.52,6.42
		c-0.92,0.76-1.54,1.28-1.89,1.58c-0.12,0.1-0.22,0.23-0.29,0.37L307.67,428.48z"/>
	
		<path style="clip-path:url(#SVGID_00000129165911174372279600000015409033745456235956_);fill:none;stroke:#5692CE;stroke-miterlimit:10;" d="
		M305.38,397.38C305.38,397.38,305.38,397.38,305.38,397.38C305.38,397.38,305.38,397.38,305.38,397.38z M323.47,403.2L323.47,403.2
		L323.47,403.2z M292.06,420.32l0.15,0.03l0.01-0.03L292.06,420.32z M292.83,420.53c0.21,0.07,0.36,0.12,0.52,0.18
		c0.65,0.24,1.3,0.5,1.93,0.76l5.88,2.41l5.79,2.48l1.12-2.21c0.16-0.33,0.39-0.61,0.67-0.86c0.36-0.31,0.99-0.83,1.93-1.61
		c1.98-1.64,4.97-4.12,7.47-6.38l0.45-0.41c0.23-0.21,0.45-0.42,0.67-0.63c0.87-0.81,1.58-1.53,2.13-2.12l0.19-0.21
		c0.1-0.11,0.18-0.21,0.26-0.3l9.33-11.08c0.18-0.21,0.28-0.45,0.32-0.71c0.02-0.11,0.02-0.22,0-0.33
		c-0.02-0.15-0.05-0.29-0.11-0.42c-0.09-0.2-0.24-0.38-0.43-0.52c-0.29-0.21-0.65-0.31-1.02-0.27c-0.38,0.04-0.73,0.21-0.98,0.49
		l-4.43,5.27c-0.55,0.61-1.45,0.67-2.06,0.17c-0.31-0.25-0.49-0.61-0.53-1c-0.04-0.39,0.08-0.77,0.33-1.08l6.07-6.98
		c0.03-0.04,0.07-0.09,0.1-0.14c0.17-0.27,0.24-0.56,0.21-0.86c-0.04-0.37-0.22-0.69-0.51-0.93c-0.3-0.24-0.67-0.36-1.07-0.32
		c-0.21,0.02-0.41,0.08-0.6,0.19c-0.13,0.08-0.25,0.17-0.35,0.28l-6.12,7.04c-0.54,0.58-1.42,0.65-2.04,0.17
		c-0.32-0.26-0.5-0.61-0.54-1v0c-0.04-0.39,0.08-0.78,0.33-1.08l7.43-8.65c0.5-0.6,0.46-1.46-0.11-1.95
		c-0.6-0.52-1.51-0.47-2.05,0.12l-1.18,1.4c-3.71,4.38-6.35,7.36-6.36,7.38c-0.52,0.57-1.41,0.63-2.02,0.16
		c-0.31-0.26-0.5-0.61-0.54-0.99c-0.04-0.39,0.08-0.78,0.33-1.09l6.6-7.64c0.09-0.11,0.17-0.23,0.22-0.37
		c0.17-0.41,0.12-0.88-0.12-1.25c-0.09-0.14-0.18-0.23-0.29-0.32c-0.08-0.07-0.17-0.12-0.29-0.18c-0.2-0.1-0.42-0.15-0.66-0.14
		l-0.11,0c-0.13,0.01-0.25,0.04-0.37,0.08c-0.12,0.04-0.23,0.1-0.32,0.17l-0.09,0.06c-0.01,0.01-0.07,0.05-0.11,0.1l-0.11,0.12
		l-8.56,9.94c-0.4,0.48-0.81,0.95-1.19,1.45c-0.1,0.13-0.2,0.26-0.29,0.38c-0.33,0.44-0.67,0.9-1.14,1.29
		c-0.18,0.15-0.39,0.25-0.63,0.29c-0.65,0.11-1.36-0.2-2.23-0.7l-0.33-0.19c-0.57-0.33-1.3-1.14-1.77-1.8
		c-0.3,0.55-0.65,1.54-0.65,2.37c-0.03,0.49-0.02,1.04-0.01,1.65c0.02,1.92-0.01,3.99-0.41,6.03c-0.48,2.48-1.69,4.97-3.71,7.63
		c-0.2,0.26-0.74,1.05-2.23,3.34c-0.02,0.65-0.29,1.28-0.77,1.79c-0.22,0.23-0.71,1.05-0.78,1.27l-0.01,0.05l-0.62-0.01
		c0.08,0.03,0.16,0.06,0.24,0.09l0.35,0.08L292.83,420.53z M307.67,428.48l-0.86-0.44l-12.14-5.08c-0.61-0.25-1.24-0.51-1.88-0.74
		c-0.15-0.06-0.29-0.1-0.43-0.15c-0.31-0.11-0.54-0.18-0.74-0.27l-0.57-0.23l0.08-0.61c0.02-0.13,0.05-0.3,0.09-0.52l0.11-0.54
		c0.12-0.48,0.8-1.58,1.17-1.97c0.24-0.25,0.36-0.56,0.33-0.86l-0.02-0.27l0.15-0.23c1.29-2,2.11-3.23,2.43-3.65
		c1.86-2.46,2.98-4.74,3.42-6.97c0.37-1.9,0.4-3.87,0.38-5.71c-0.01-0.66-0.02-1.24,0.01-1.72c0.01-1.44,0.76-3.35,1.57-3.97
		c0.39-0.3,0.74-0.3,0.97-0.25c0.23,0.05,0.55,0.19,0.78,0.61c0.26,0.48,1.12,1.48,1.51,1.71l0.32,0.19
		c0.69,0.39,0.99,0.49,1.12,0.51c0.29-0.27,0.54-0.6,0.81-0.95c0.1-0.14,0.21-0.28,0.31-0.41c0.39-0.5,0.81-1,1.23-1.49l4.15-4.9
		l4.5-5.14c0.04-0.04,0.08-0.09,0.13-0.13c0.09-0.09,0.2-0.18,0.31-0.26l0.1-0.07c0.18-0.13,0.42-0.25,0.66-0.34
		c0.25-0.09,0.51-0.15,0.77-0.18c0.07-0.01,0.18-0.01,0.27-0.01c0.49,0,0.95,0.1,1.35,0.3c0.23,0.12,0.43,0.24,0.6,0.38
		c0.22,0.18,0.42,0.39,0.57,0.61l0.06,0.09c0.46,0.69,0.59,1.57,0.36,2.38l0.17-0.2c1.13-1.23,3.05-1.34,4.29-0.25
		c1.23,1.07,1.36,2.91,0.28,4.19l-0.68,0.79c0.36-0.2,0.76-0.32,1.18-0.36c0.81-0.08,1.6,0.16,2.22,0.67
		c0.63,0.5,1.02,1.22,1.09,2.02c0.06,0.66-0.09,1.31-0.44,1.87c-0.07,0.11-0.15,0.22-0.24,0.33l-0.59,0.68
		c0.26-0.1,0.53-0.16,0.8-0.19c0.78-0.08,1.54,0.12,2.15,0.58c0.4,0.3,0.72,0.69,0.92,1.14c0.13,0.29,0.21,0.59,0.25,0.9
		c0.03,0.24,0.03,0.49-0.01,0.73c-0.07,0.55-0.3,1.08-0.68,1.52l-9.33,11.08c-0.09,0.11-0.19,0.22-0.29,0.34l-0.21,0.23
		c-0.57,0.62-1.32,1.36-2.21,2.2c-0.22,0.21-0.45,0.42-0.69,0.64l-0.46,0.42c-2.52,2.28-5.53,4.77-7.52,6.42
		c-0.92,0.76-1.54,1.28-1.89,1.58c-0.12,0.1-0.22,0.23-0.29,0.37L307.67,428.48z"/>
	<path style="clip-path:url(#SVGID_00000129165911174372279600000015409033745456235956_);fill:#5692CE;" d="M240.32,409.29
		c0,0.02-0.01,0.03-0.01,0.05c-0.23,1.23-0.4,2.28-0.5,3.13c-0.01,0.11-0.03,0.22-0.04,0.33c-0.02,0.15-0.03,0.3-0.04,0.46
		l-0.66,9.09l-0.13,1.86l-0.24,3.49c-0.02,0.35,0,0.7,0.07,1.04l-32.81-5.27c-1.3-0.2-2.08-1.57-1.59-2.8
		c1.58-3.92,4.68-11.6,6.11-14.8c0.39-0.86,1.31-1.35,2.24-1.18C213.39,404.82,239.14,409.03,240.32,409.29"/>
	
		<path style="clip-path:url(#SVGID_00000129165911174372279600000015409033745456235956_);fill:none;stroke:#5692CE;stroke-miterlimit:10;" d="
		M240.32,409.29c0,0.02-0.01,0.03-0.01,0.05c-0.23,1.23-0.4,2.28-0.5,3.13c-0.01,0.11-0.03,0.22-0.04,0.33
		c-0.02,0.15-0.03,0.3-0.04,0.46l-0.66,9.09l-0.13,1.86l-0.24,3.49c-0.02,0.35,0,0.7,0.07,1.04l-32.81-5.27
		c-1.3-0.2-2.08-1.57-1.59-2.8c1.58-3.92,4.68-11.6,6.11-14.8c0.39-0.86,1.31-1.35,2.24-1.18
		C213.39,404.82,239.14,409.03,240.32,409.29"/>
	<path style="clip-path:url(#SVGID_00000129165911174372279600000015409033745456235956_);fill:#5692CE;" d="M212.35,405.46
		c-0.49,0-0.94,0.28-1.14,0.74c-1.4,3.12-4.42,10.6-6.1,14.77c-0.14,0.36-0.12,0.75,0.07,1.09c0.19,0.33,0.52,0.56,0.9,0.62
		l31.81,5.11c0-0.05,0-0.09,0.01-0.14l1.04-14.45c0.01-0.17,0.03-0.33,0.04-0.49l0.03-0.27c0.08-0.74,0.21-1.57,0.38-2.51
		c-3.11-0.54-14.56-2.43-21.05-3.5c-3.23-0.53-5.56-0.92-5.75-0.95C212.5,405.47,212.43,405.46,212.35,405.46 M239.79,429.72
		l-33.96-5.45c-0.86-0.14-1.6-0.65-2.04-1.41c-0.43-0.76-0.49-1.66-0.17-2.48c1.68-4.19,4.71-11.68,6.12-14.83
		c0.54-1.2,1.82-1.88,3.11-1.64c0.19,0.04,2.51,0.42,5.73,0.95c10.65,1.75,21.11,3.48,21.9,3.65l0.79,0.17l-0.18,0.79l-0.78-0.18
		l0.78,0.19c-0.23,1.23-0.4,2.26-0.49,3.08l-0.03,0.31c-0.02,0.15-0.03,0.29-0.04,0.45l-1.03,14.45c-0.02,0.28,0,0.55,0.05,0.82
		L239.79,429.72z"/>
	
		<path style="clip-path:url(#SVGID_00000129165911174372279600000015409033745456235956_);fill:none;stroke:#5692CE;stroke-miterlimit:10;" d="
		M212.35,405.46c-0.49,0-0.94,0.28-1.14,0.74c-1.4,3.12-4.42,10.6-6.1,14.77c-0.14,0.36-0.12,0.75,0.07,1.09
		c0.19,0.33,0.52,0.56,0.9,0.62l31.81,5.11c0-0.05,0-0.09,0.01-0.14l1.04-14.45c0.01-0.17,0.03-0.33,0.04-0.49l0.03-0.27
		c0.08-0.74,0.21-1.57,0.38-2.51c-3.11-0.54-14.56-2.43-21.05-3.5c-3.23-0.53-5.56-0.92-5.75-0.95
		C212.5,405.47,212.43,405.46,212.35,405.46z M239.79,429.72l-33.96-5.45c-0.86-0.14-1.6-0.65-2.04-1.41
		c-0.43-0.76-0.49-1.66-0.17-2.48c1.68-4.19,4.71-11.68,6.12-14.83c0.54-1.2,1.82-1.88,3.11-1.64c0.19,0.04,2.51,0.42,5.73,0.95
		c10.65,1.75,21.11,3.48,21.9,3.65l0.79,0.17l-0.18,0.79l-0.78-0.18l0.78,0.19c-0.23,1.23-0.4,2.26-0.49,3.08l-0.03,0.31
		c-0.02,0.15-0.03,0.29-0.04,0.45l-1.03,14.45c-0.02,0.28,0,0.55,0.05,0.82L239.79,429.72z"/>
	<path style="clip-path:url(#SVGID_00000129165911174372279600000015409033745456235956_);fill:#5692CE;" d="M307.35,429.38
		c0.12,0.15,0.22,0.32,0.3,0.5c0.01,0.03,0.03,0.06,0.04,0.1c0,0.01,0.01,0.02,0.01,0.03c0.13,0.35,0.17,0.72,0.12,1.08
		c-0.03,0.19-0.07,0.35-0.13,0.5c-0.08,0.2-0.18,0.38-0.3,0.54l-0.04,0.04c-0.45,0.57-1.14,0.85-1.83,0.8
		c-0.23-0.01-0.45-0.07-0.67-0.15l-0.24-0.1l-9.04-3.81c-0.17-0.07-0.36-0.07-0.52,0.01c-0.16,0.07-0.29,0.2-0.35,0.37
		c-0.13,0.34,0.03,0.72,0.35,0.86c0.02,0.01,3.68,1.59,8.96,3.76c0.28,0.12,0.57,0.23,0.86,0.35c0.26,0.1,0.51,0.21,0.78,0.32
		l0.08,0.04c1.11,0.51,1.62,1.83,1.14,2.95c-0.46,1.1-1.72,1.6-2.86,1.13l-1.15-0.48l-0.86-0.36l-8.49-3.55
		c-0.17-0.07-0.36-0.06-0.52,0.01c-0.16,0.07-0.29,0.2-0.36,0.37c-0.12,0.34,0.03,0.72,0.35,0.87l8.38,3.56l0.14,0.06l0.09,0.04
		c0.21,0.1,0.41,0.23,0.58,0.38c0.24,0.22,0.43,0.48,0.56,0.78c0.24,0.55,0.25,1.16,0.04,1.71c-0.21,0.55-0.62,0.98-1.15,1.22
		c-0.44,0.19-0.93,0.23-1.39,0.11c-0.1-0.02-0.2-0.06-0.29-0.1l-0.58-0.24l-7.91-3.36c-0.17-0.07-0.36-0.07-0.52,0.01
		c-0.16,0.07-0.29,0.2-0.36,0.37c-0.13,0.34,0.02,0.72,0.35,0.87l6.33,2.56l0.09,0.04c0.54,0.25,0.95,0.68,1.17,1.18
		c0.23,0.51,0.27,1.09,0.09,1.64c-0.12,0.35-0.32,0.66-0.59,0.9v0c-0.16,0.15-0.35,0.27-0.56,0.37c-0.16,0.07-0.33,0.13-0.5,0.16
		c-0.4,0.08-0.82,0.04-1.22-0.12l-3.25-1.31l-1.73-0.7l-8.44-3.44c-0.12-0.05-0.26-0.11-0.39-0.17c-0.09-0.04-0.18-0.08-0.27-0.12
		c-0.8-0.37-1.73-0.85-2.73-1.39c-0.27-0.15-0.54-0.3-0.81-0.45c-0.18-0.1-0.35-0.2-0.53-0.3c-2.92-1.67-6.16-3.73-8.41-5.15
		c-1.02-0.64-1.7-1.08-2.11-1.32c-0.23-0.14-0.48-0.23-0.74-0.27l-3.2-0.5c0.01-0.05,0.02-0.11,0.02-0.16l0.01-0.03l0.62-6.8
		l0.14-1.89c0.05-0.68,0.1-1.35,0.15-2.03c0.05-0.68,0.1-1.36,0.15-2.04l0.03-0.41c0.05-0.66,0.1-1.34,0.12-2.02
		c0.01-0.18,0.01-0.36,0.01-0.54c0-0.24,0.01-0.46,0.02-0.68c0.14-0.03,0.34-0.06,0.62-0.09c0.12-0.01,0.24-0.03,0.36-0.04
		c0.32-0.02,1.44,0.24,1.84,0.43c0.53,0.25,1.09,0.27,1.57,0.07c2.15,0.57,3.66,0.99,4.16,1.17c2.57,0.9,5.31,1.47,8.04,1.13
		c1.95-0.24,3.85-0.81,5.7-1.44c0.6-0.2,1.14-0.39,1.59-0.5c1.22-0.39,3.02-0.26,3.61,0.15c0.22,0.15,0.27,0.35,0.07,0.56
		c-0.42,0.45-1.22,1.7-1.36,2.35c-0.02,0.12-0.05,0.24-0.08,0.37h0c-0.13,0.64-0.26,1.4-0.05,1.81c0.04,0.09,0.1,0.15,0.18,0.2
		c0.58,0.36,1.25,0.54,1.88,0.77c0.75,0.27,1.48,0.58,2.22,0.88c1.26,0.51,2.51,1.04,3.77,1.55l1.73,0.7l6.17,2.64l0.08,0.04
		c0.04,0.02,0.07,0.04,0.11,0.05c0.09,0.05,0.18,0.1,0.26,0.16l0.06,0.05C307.1,429.1,307.23,429.23,307.35,429.38"/>
	
		<path style="clip-path:url(#SVGID_00000129165911174372279600000015409033745456235956_);fill:none;stroke:#5692CE;stroke-miterlimit:10;" d="
		M307.35,429.38c0.12,0.15,0.22,0.32,0.3,0.5c0.01,0.03,0.03,0.06,0.04,0.1c0,0.01,0.01,0.02,0.01,0.03
		c0.13,0.35,0.17,0.72,0.12,1.08c-0.03,0.19-0.07,0.35-0.13,0.5c-0.08,0.2-0.18,0.38-0.3,0.54l-0.04,0.04
		c-0.45,0.57-1.14,0.85-1.83,0.8c-0.23-0.01-0.45-0.07-0.67-0.15l-0.24-0.1l-9.04-3.81c-0.17-0.07-0.36-0.07-0.52,0.01
		c-0.16,0.07-0.29,0.2-0.35,0.37c-0.13,0.34,0.03,0.72,0.35,0.86c0.02,0.01,3.68,1.59,8.96,3.76c0.28,0.12,0.57,0.23,0.86,0.35
		c0.26,0.1,0.51,0.21,0.78,0.32l0.08,0.04c1.11,0.51,1.62,1.83,1.14,2.95c-0.46,1.1-1.72,1.6-2.86,1.13l-1.15-0.48l-0.86-0.36
		l-8.49-3.55c-0.17-0.07-0.36-0.06-0.52,0.01c-0.16,0.07-0.29,0.2-0.36,0.37c-0.12,0.34,0.03,0.72,0.35,0.87l8.38,3.56l0.14,0.06
		l0.09,0.04c0.21,0.1,0.41,0.23,0.58,0.38c0.24,0.22,0.43,0.48,0.56,0.78c0.24,0.55,0.25,1.16,0.04,1.71
		c-0.21,0.55-0.62,0.98-1.15,1.22c-0.44,0.19-0.93,0.23-1.39,0.11c-0.1-0.02-0.2-0.06-0.29-0.1l-0.58-0.24l-7.91-3.36
		c-0.17-0.07-0.36-0.07-0.52,0.01c-0.16,0.07-0.29,0.2-0.36,0.37c-0.13,0.34,0.02,0.72,0.35,0.87l6.33,2.56l0.09,0.04
		c0.54,0.25,0.95,0.68,1.17,1.18c0.23,0.51,0.27,1.09,0.09,1.64c-0.12,0.35-0.32,0.66-0.59,0.9v0c-0.16,0.15-0.35,0.27-0.56,0.37
		c-0.16,0.07-0.33,0.13-0.5,0.16c-0.4,0.08-0.82,0.04-1.22-0.12l-3.25-1.31l-1.73-0.7l-8.44-3.44c-0.12-0.05-0.26-0.11-0.39-0.17
		c-0.09-0.04-0.18-0.08-0.27-0.12c-0.8-0.37-1.73-0.85-2.73-1.39c-0.27-0.15-0.54-0.3-0.81-0.45c-0.18-0.1-0.35-0.2-0.53-0.3
		c-2.92-1.67-6.16-3.73-8.41-5.15c-1.02-0.64-1.7-1.08-2.11-1.32c-0.23-0.14-0.48-0.23-0.74-0.27l-3.2-0.5
		c0.01-0.05,0.02-0.11,0.02-0.16l0.01-0.03l0.62-6.8l0.14-1.89c0.05-0.68,0.1-1.35,0.15-2.03c0.05-0.68,0.1-1.36,0.15-2.04
		l0.03-0.41c0.05-0.66,0.1-1.34,0.12-2.02c0.01-0.18,0.01-0.36,0.01-0.54c0-0.24,0.01-0.46,0.02-0.68c0.14-0.03,0.34-0.06,0.62-0.09
		c0.12-0.01,0.24-0.03,0.36-0.04c0.32-0.02,1.44,0.24,1.84,0.43c0.53,0.25,1.09,0.27,1.57,0.07c2.15,0.57,3.66,0.99,4.16,1.17
		c2.57,0.9,5.31,1.47,8.04,1.13c1.95-0.24,3.85-0.81,5.7-1.44c0.6-0.2,1.14-0.39,1.59-0.5c1.22-0.39,3.02-0.26,3.61,0.15
		c0.22,0.15,0.27,0.35,0.07,0.56c-0.42,0.45-1.22,1.7-1.36,2.35c-0.02,0.12-0.05,0.24-0.08,0.37h0c-0.13,0.64-0.26,1.4-0.05,1.81
		c0.04,0.09,0.1,0.15,0.18,0.2c0.58,0.36,1.25,0.54,1.88,0.77c0.75,0.27,1.48,0.58,2.22,0.88c1.26,0.51,2.51,1.04,3.77,1.55
		l1.73,0.7l6.17,2.64l0.08,0.04c0.04,0.02,0.07,0.04,0.11,0.05c0.09,0.05,0.18,0.1,0.26,0.16l0.06,0.05
		C307.1,429.1,307.23,429.23,307.35,429.38"/>
	<path style="clip-path:url(#SVGID_00000129165911174372279600000015409033745456235956_);fill:#5692CE;" d="M291.38,416.86
		L291.38,416.86L291.38,416.86z M291.12,440.46L291.12,440.46L291.12,440.46L291.12,440.46z M264,431.9l2.45,0.38
		c0.37,0.06,0.71,0.18,1.02,0.37c0.41,0.24,1.1,0.68,2.12,1.33c2.16,1.37,5.43,3.44,8.38,5.13l0.53,0.3
		c0.27,0.16,0.54,0.31,0.8,0.45c1.04,0.57,1.94,1.03,2.67,1.37l0.64,0.28l13.41,5.44c0.25,0.1,0.52,0.13,0.77,0.08
		c0.11-0.02,0.22-0.05,0.32-0.1c0.13-0.06,0.25-0.14,0.35-0.23c0.17-0.15,0.29-0.35,0.37-0.57c0.12-0.34,0.1-0.71-0.06-1.05
		c-0.16-0.35-0.43-0.63-0.78-0.79l-6.38-2.58c-0.75-0.34-1.09-1.17-0.8-1.9c0.15-0.37,0.43-0.66,0.79-0.82
		c0.35-0.15,0.75-0.16,1.13-0.02l8.51,3.62c0.06,0.02,0.12,0.04,0.18,0.06c0.29,0.07,0.6,0.05,0.88-0.07
		c0.33-0.15,0.59-0.42,0.72-0.77c0.14-0.36,0.13-0.75-0.03-1.11c-0.09-0.2-0.21-0.37-0.36-0.51c-0.11-0.1-0.24-0.18-0.37-0.25
		l-8.59-3.64c-0.72-0.33-1.06-1.15-0.79-1.88c0.15-0.38,0.43-0.67,0.79-0.83c0.36-0.16,0.77-0.16,1.13-0.02l10.52,4.4
		c0.72,0.29,1.53-0.02,1.82-0.71c0.31-0.73-0.02-1.59-0.74-1.91l-1.7-0.69c-4.4-1.81-7.69-3.21-8.9-3.73
		c-0.79-0.36-1.13-1.18-0.86-1.91c0.15-0.37,0.42-0.66,0.78-0.82c0.36-0.16,0.77-0.17,1.14-0.02l9.3,3.92
		c0.13,0.05,0.27,0.08,0.41,0.09c0.44,0.03,0.87-0.16,1.15-0.51c0.1-0.13,0.17-0.25,0.22-0.38c0.04-0.09,0.06-0.2,0.08-0.32
		c0.03-0.22,0-0.46-0.08-0.69c-0.08-0.2-0.14-0.31-0.22-0.41l-0.01-0.01c-0.07-0.09-0.16-0.18-0.26-0.25
		c-0.1-0.07-0.16-0.11-0.22-0.15l-0.07-0.04l-12.06-5.05c-0.61-0.25-1.23-0.5-1.85-0.73c-0.15-0.06-0.3-0.11-0.45-0.16
		c-0.52-0.18-1.06-0.36-1.58-0.69c-0.2-0.13-0.36-0.3-0.47-0.51c-0.33-0.64-0.19-1.54-0.02-2.34l0.08-0.37
		c0.14-0.65,0.69-1.6,1.16-2.25c-0.62-0.12-1.66-0.14-2.45,0.11c-0.47,0.12-0.99,0.3-1.57,0.5c-1.83,0.62-3.8,1.22-5.86,1.47
		c-2.51,0.31-5.25-0.07-8.4-1.17c-0.31-0.11-1.23-0.38-3.87-1.08c-0.63,0.18-1.31,0.12-1.94-0.18c-0.28-0.14-1.21-0.35-1.45-0.35h0
		l-0.25,0.03c0,0.17,0,0.36-0.01,0.54c-0.03,0.69-0.07,1.37-0.12,2.03l-0.03,0.43c-0.05,0.68-0.1,1.36-0.15,2.04l-0.03,0.44
		c-0.04,0.53-0.08,1.06-0.12,1.59l-0.14,1.89L264,431.9z M296.55,448.66c-0.38,0-0.76-0.07-1.12-0.22l-14.07-5.73
		c-0.82-0.37-1.75-0.85-2.82-1.44c-0.27-0.15-0.55-0.3-0.82-0.46l-0.53-0.3c-2.98-1.71-6.27-3.79-8.44-5.17
		c-1.01-0.64-1.69-1.07-2.09-1.31c-0.14-0.08-0.29-0.14-0.45-0.16l-3.98-0.62l0.14-0.96l0.75-8.66c0.04-0.53,0.08-1.06,0.12-1.6
		l0.03-0.44c0.05-0.68,0.1-1.35,0.15-2.03l0.03-0.42c0.05-0.65,0.1-1.32,0.12-1.99c0.01-0.18,0.01-0.35,0.01-0.52
		c0-0.25,0.01-0.5,0.02-0.73l0.04-0.62l0.61-0.11c0.16-0.03,0.38-0.06,0.68-0.1l0.37-0.04c0.51-0.02,1.77,0.27,2.26,0.5
		c0.31,0.15,0.64,0.17,0.92,0.05l0.25-0.11l0.26,0.07c2.3,0.61,3.72,1.01,4.22,1.18c2.91,1.01,5.42,1.37,7.68,1.1
		c1.92-0.24,3.8-0.81,5.54-1.4c0.62-0.21,1.18-0.4,1.64-0.52c1.37-0.44,3.42-0.32,4.26,0.26c0.4,0.28,0.52,0.61,0.54,0.85
		c0.02,0.23-0.02,0.58-0.35,0.93c-0.38,0.4-1.06,1.52-1.16,1.97l-0.08,0.36c-0.16,0.78-0.16,1.1-0.14,1.23
		c0.34,0.2,0.74,0.33,1.16,0.48c0.16,0.05,0.32,0.11,0.48,0.17c0.64,0.23,1.27,0.49,1.9,0.75l5.84,2.39l6.42,2.76
		c0.14,0.08,0.26,0.15,0.37,0.23l0.1,0.07c0.2,0.15,0.38,0.33,0.54,0.54c0.16,0.21,0.3,0.43,0.4,0.67c0.02,0.06,0.05,0.12,0.07,0.18
		c0.17,0.46,0.23,0.96,0.16,1.45c-0.04,0.26-0.09,0.48-0.18,0.69c-0.11,0.27-0.24,0.52-0.41,0.73l-0.08,0.09
		c-0.51,0.64-1.31,1.04-2.15,1.07l0.24,0.1c1.52,0.69,2.22,2.49,1.57,4c-0.64,1.5-2.35,2.19-3.9,1.56l-0.96-0.4
		c0.3,0.28,0.54,0.63,0.71,1.01c0.32,0.74,0.34,1.57,0.05,2.32c-0.29,0.75-0.85,1.34-1.58,1.66c-0.61,0.27-1.27,0.32-1.91,0.15
		c-0.14-0.04-0.27-0.08-0.4-0.13l-0.82-0.35c0.17,0.21,0.32,0.45,0.43,0.7c0.32,0.71,0.36,1.5,0.11,2.23
		c-0.16,0.47-0.44,0.9-0.8,1.23c-0.23,0.21-0.48,0.38-0.77,0.51c-0.22,0.1-0.45,0.17-0.69,0.22
		C296.91,448.64,296.73,448.66,296.55,448.66"/>
	
		<path style="clip-path:url(#SVGID_00000129165911174372279600000015409033745456235956_);fill:none;stroke:#5692CE;stroke-miterlimit:10;" d="
		M291.38,416.86L291.38,416.86L291.38,416.86z M291.12,440.46L291.12,440.46L291.12,440.46L291.12,440.46z M264,431.9l2.45,0.38
		c0.37,0.06,0.71,0.18,1.02,0.37c0.41,0.24,1.1,0.68,2.12,1.33c2.16,1.37,5.43,3.44,8.38,5.13l0.53,0.3
		c0.27,0.16,0.54,0.31,0.8,0.45c1.04,0.57,1.94,1.03,2.67,1.37l0.64,0.28l13.41,5.44c0.25,0.1,0.52,0.13,0.77,0.08
		c0.11-0.02,0.22-0.05,0.32-0.1c0.13-0.06,0.25-0.14,0.35-0.23c0.17-0.15,0.29-0.35,0.37-0.57c0.12-0.34,0.1-0.71-0.06-1.05
		c-0.16-0.35-0.43-0.63-0.78-0.79l-6.38-2.58c-0.75-0.34-1.09-1.17-0.8-1.9c0.15-0.37,0.43-0.66,0.79-0.82
		c0.35-0.15,0.75-0.16,1.13-0.02l8.51,3.62c0.06,0.02,0.12,0.04,0.18,0.06c0.29,0.07,0.6,0.05,0.88-0.07
		c0.33-0.15,0.59-0.42,0.72-0.77c0.14-0.36,0.13-0.75-0.03-1.11c-0.09-0.2-0.21-0.37-0.36-0.51c-0.11-0.1-0.24-0.18-0.37-0.25
		l-8.59-3.64c-0.72-0.33-1.06-1.15-0.79-1.88c0.15-0.38,0.43-0.67,0.79-0.83c0.36-0.16,0.77-0.16,1.13-0.02l10.52,4.4
		c0.72,0.29,1.53-0.02,1.82-0.71c0.31-0.73-0.02-1.59-0.74-1.91l-1.7-0.69c-4.4-1.81-7.69-3.21-8.9-3.73
		c-0.79-0.36-1.13-1.18-0.86-1.91c0.15-0.37,0.42-0.66,0.78-0.82c0.36-0.16,0.77-0.17,1.14-0.02l9.3,3.92
		c0.13,0.05,0.27,0.08,0.41,0.09c0.44,0.03,0.87-0.16,1.15-0.51c0.1-0.13,0.17-0.25,0.22-0.38c0.04-0.09,0.06-0.2,0.08-0.32
		c0.03-0.22,0-0.46-0.08-0.69c-0.08-0.2-0.14-0.31-0.22-0.41l-0.01-0.01c-0.07-0.09-0.16-0.18-0.26-0.25
		c-0.1-0.07-0.16-0.11-0.22-0.15l-0.07-0.04l-12.06-5.05c-0.61-0.25-1.23-0.5-1.85-0.73c-0.15-0.06-0.3-0.11-0.45-0.16
		c-0.52-0.18-1.06-0.36-1.58-0.69c-0.2-0.13-0.36-0.3-0.47-0.51c-0.33-0.64-0.19-1.54-0.02-2.34l0.08-0.37
		c0.14-0.65,0.69-1.6,1.16-2.25c-0.62-0.12-1.66-0.14-2.45,0.11c-0.47,0.12-0.99,0.3-1.57,0.5c-1.83,0.62-3.8,1.22-5.86,1.47
		c-2.51,0.31-5.25-0.07-8.4-1.17c-0.31-0.11-1.23-0.38-3.87-1.08c-0.63,0.18-1.31,0.12-1.94-0.18c-0.28-0.14-1.21-0.35-1.45-0.35h0
		l-0.25,0.03c0,0.17,0,0.36-0.01,0.54c-0.03,0.69-0.07,1.37-0.12,2.03l-0.03,0.43c-0.05,0.68-0.1,1.36-0.15,2.04l-0.03,0.44
		c-0.04,0.53-0.08,1.06-0.12,1.59l-0.14,1.89L264,431.9z M296.55,448.66c-0.38,0-0.76-0.07-1.12-0.22l-14.07-5.73
		c-0.82-0.37-1.75-0.85-2.82-1.44c-0.27-0.15-0.55-0.3-0.82-0.46l-0.53-0.3c-2.98-1.71-6.27-3.79-8.44-5.17
		c-1.01-0.64-1.69-1.07-2.09-1.31c-0.14-0.08-0.29-0.14-0.45-0.16l-3.98-0.62l0.14-0.96l0.75-8.66c0.04-0.53,0.08-1.06,0.12-1.6
		l0.03-0.44c0.05-0.68,0.1-1.35,0.15-2.03l0.03-0.42c0.05-0.65,0.1-1.32,0.12-1.99c0.01-0.18,0.01-0.35,0.01-0.52
		c0-0.25,0.01-0.5,0.02-0.73l0.04-0.62l0.61-0.11c0.16-0.03,0.38-0.06,0.68-0.1l0.37-0.04c0.51-0.02,1.77,0.27,2.26,0.5
		c0.31,0.15,0.64,0.17,0.92,0.05l0.25-0.11l0.26,0.07c2.3,0.61,3.72,1.01,4.22,1.18c2.91,1.01,5.42,1.37,7.68,1.1
		c1.92-0.24,3.8-0.81,5.54-1.4c0.62-0.21,1.18-0.4,1.64-0.52c1.37-0.44,3.42-0.32,4.26,0.26c0.4,0.28,0.52,0.61,0.54,0.85
		c0.02,0.23-0.02,0.58-0.35,0.93c-0.38,0.4-1.06,1.52-1.16,1.97l-0.08,0.36c-0.16,0.78-0.16,1.1-0.14,1.23
		c0.34,0.2,0.74,0.33,1.16,0.48c0.16,0.05,0.32,0.11,0.48,0.17c0.64,0.23,1.27,0.49,1.9,0.75l5.84,2.39l6.42,2.76
		c0.14,0.08,0.26,0.15,0.37,0.23l0.1,0.07c0.2,0.15,0.38,0.33,0.54,0.54c0.16,0.21,0.3,0.43,0.4,0.67c0.02,0.06,0.05,0.12,0.07,0.18
		c0.17,0.46,0.23,0.96,0.16,1.45c-0.04,0.26-0.09,0.48-0.18,0.69c-0.11,0.27-0.24,0.52-0.41,0.73l-0.08,0.09
		c-0.51,0.64-1.31,1.04-2.15,1.07l0.24,0.1c1.52,0.69,2.22,2.49,1.57,4c-0.64,1.5-2.35,2.19-3.9,1.56l-0.96-0.4
		c0.3,0.28,0.54,0.63,0.71,1.01c0.32,0.74,0.34,1.57,0.05,2.32c-0.29,0.75-0.85,1.34-1.58,1.66c-0.61,0.27-1.27,0.32-1.91,0.15
		c-0.14-0.04-0.27-0.08-0.4-0.13l-0.82-0.35c0.17,0.21,0.32,0.45,0.43,0.7c0.32,0.71,0.36,1.5,0.11,2.23
		c-0.16,0.47-0.44,0.9-0.8,1.23c-0.23,0.21-0.48,0.38-0.77,0.51c-0.22,0.1-0.45,0.17-0.69,0.22
		C296.91,448.64,296.73,448.66,296.55,448.66z"/>
	<path style="clip-path:url(#SVGID_00000129165911174372279600000015409033745456235956_);fill:#5692CE;" d="M260.73,388.22
		c0.07,0.13,0.16,0.3,0.27,0.55c0.03,0.08,0.15,0.34,0.15,0.34c0.12,0.3,0.22,1.44,0.17,1.88c-0.08,0.57,0.08,1.11,0.42,1.51l0,0
		c0.12,2.22,0.19,3.8,0.18,4.32c-0.06,2.72,0.24,5.51,1.41,8c0.83,1.78,1.96,3.41,3.13,4.98c0.38,0.51,0.72,0.97,0.97,1.36
		c0.74,1.04,1.18,2.79,0.97,3.48c-0.08,0.26-0.24,0.37-0.51,0.24c-0.55-0.26-1.99-0.64-2.65-0.57c-0.12,0.01-0.25,0.03-0.38,0.04
		c-0.65,0.07-1.42,0.19-1.73,0.51c-0.07,0.07-0.11,0.15-0.14,0.23c-0.16,0.66-0.12,1.35-0.15,2.03c-0.03,0.79-0.09,1.59-0.15,2.38
		c-0.1,1.36-0.21,2.71-0.31,4.07l-0.14,1.86l-0.61,6.69l-0.01,0.09c-0.01,0.04-0.01,0.08-0.02,0.12c-0.02,0.1-0.04,0.2-0.07,0.3
		l-0.03,0.07c-0.06,0.18-0.15,0.35-0.26,0.51c-0.1,0.16-0.23,0.31-0.38,0.44c-0.03,0.02-0.05,0.05-0.08,0.07
		c-0.01,0.01-0.02,0.01-0.03,0.02c-0.3,0.23-0.63,0.38-0.99,0.45c-0.19,0.03-0.35,0.04-0.51,0.03c-0.21-0.01-0.42-0.05-0.61-0.12
		l-0.05-0.02c-0.68-0.26-1.16-0.82-1.33-1.49c-0.05-0.22-0.07-0.45-0.06-0.68l0.02-0.26l0.83-9.77c0.01-0.19-0.05-0.36-0.17-0.5
		c-0.12-0.13-0.28-0.21-0.46-0.22c-0.36-0.01-0.67,0.25-0.71,0.6c0,0.02-0.38,3.99-0.81,9.68c-0.02,0.3-0.05,0.61-0.07,0.93
		c-0.02,0.27-0.04,0.55-0.06,0.83l-0.01,0.09c-0.14,1.21-1.24,2.11-2.45,2c-1.19-0.1-2.05-1.15-1.96-2.37l0.1-1.24l0.08-0.93
		l0.75-9.17c0.01-0.19-0.05-0.36-0.17-0.49c-0.12-0.14-0.28-0.21-0.46-0.23c-0.36-0.01-0.68,0.25-0.72,0.61l-0.79,9.07l-0.01,0.15
		l-0.01,0.09c-0.03,0.23-0.09,0.46-0.18,0.67c-0.13,0.29-0.33,0.56-0.57,0.78c-0.45,0.4-1.02,0.6-1.62,0.57
		c-0.59-0.03-1.13-0.29-1.51-0.72c-0.32-0.36-0.5-0.81-0.54-1.29c-0.01-0.1-0.01-0.2,0-0.3l0.05-0.63l0.75-8.57
		c0.01-0.18-0.05-0.36-0.17-0.49c-0.12-0.13-0.28-0.21-0.46-0.22c-0.36-0.02-0.68,0.24-0.72,0.61l-0.48,6.81l-0.01,0.09
		c-0.07,0.59-0.35,1.11-0.76,1.48c-0.41,0.38-0.96,0.6-1.54,0.59c-0.37-0.01-0.73-0.1-1.04-0.28c-0.2-0.11-0.37-0.25-0.53-0.42
		c-0.12-0.13-0.22-0.27-0.31-0.43c-0.2-0.36-0.29-0.77-0.26-1.2l0.24-3.5l0.13-1.86l0.66-9.08c0.01-0.13,0.02-0.28,0.04-0.42
		c0.01-0.1,0.02-0.2,0.03-0.3c0.1-0.87,0.27-1.91,0.48-3.02c0.06-0.3,0.12-0.6,0.18-0.91c0.04-0.2,0.08-0.4,0.12-0.6
		c0.69-3.3,1.64-7.01,2.3-9.59c0.3-1.17,0.5-1.96,0.6-2.41c0.06-0.26,0.07-0.52,0.02-0.78l-0.51-3.2c0.05-0.01,0.11-0.02,0.17-0.03
		l0.02-0.01l6.68-1.52l1.83-0.45c0.66-0.16,1.32-0.32,1.97-0.48c0.66-0.16,1.33-0.32,1.99-0.49l0.4-0.1
		c0.64-0.16,1.3-0.32,1.96-0.51c0.17-0.05,0.34-0.1,0.51-0.15C260.3,388.34,260.52,388.27,260.73,388.22"/>
	
		<path style="clip-path:url(#SVGID_00000129165911174372279600000015409033745456235956_);fill:none;stroke:#5692CE;stroke-miterlimit:10;" d="
		M260.73,388.22c0.07,0.13,0.16,0.3,0.27,0.55c0.03,0.08,0.15,0.34,0.15,0.34c0.12,0.3,0.22,1.44,0.17,1.88
		c-0.08,0.57,0.08,1.11,0.42,1.51l0,0c0.12,2.22,0.19,3.8,0.18,4.32c-0.06,2.72,0.24,5.51,1.41,8c0.83,1.78,1.96,3.41,3.13,4.98
		c0.38,0.51,0.72,0.97,0.97,1.36c0.74,1.04,1.18,2.79,0.97,3.48c-0.08,0.26-0.24,0.37-0.51,0.24c-0.55-0.26-1.99-0.64-2.65-0.57
		c-0.12,0.01-0.25,0.03-0.38,0.04c-0.65,0.07-1.42,0.19-1.73,0.51c-0.07,0.07-0.11,0.15-0.14,0.23c-0.16,0.66-0.12,1.35-0.15,2.03
		c-0.03,0.79-0.09,1.59-0.15,2.38c-0.1,1.36-0.21,2.71-0.31,4.07l-0.14,1.86l-0.61,6.69l-0.01,0.09c-0.01,0.04-0.01,0.08-0.02,0.12
		c-0.02,0.1-0.04,0.2-0.07,0.3l-0.03,0.07c-0.06,0.18-0.15,0.35-0.26,0.51c-0.1,0.16-0.23,0.31-0.38,0.44
		c-0.03,0.02-0.05,0.05-0.08,0.07c-0.01,0.01-0.02,0.01-0.03,0.02c-0.3,0.23-0.63,0.38-0.99,0.45c-0.19,0.03-0.35,0.04-0.51,0.03
		c-0.21-0.01-0.42-0.05-0.61-0.12l-0.05-0.02c-0.68-0.26-1.16-0.82-1.33-1.49c-0.05-0.22-0.07-0.45-0.06-0.68l0.02-0.26l0.83-9.77
		c0.01-0.19-0.05-0.36-0.17-0.5c-0.12-0.13-0.28-0.21-0.46-0.22c-0.36-0.01-0.67,0.25-0.71,0.6c0,0.02-0.38,3.99-0.81,9.68
		c-0.02,0.3-0.05,0.61-0.07,0.93c-0.02,0.27-0.04,0.55-0.06,0.83l-0.01,0.09c-0.14,1.21-1.24,2.11-2.45,2
		c-1.19-0.1-2.05-1.15-1.96-2.37l0.1-1.24l0.08-0.93l0.75-9.17c0.01-0.19-0.05-0.36-0.17-0.49c-0.12-0.14-0.28-0.21-0.46-0.23
		c-0.36-0.01-0.68,0.25-0.72,0.61l-0.79,9.07l-0.01,0.15l-0.01,0.09c-0.03,0.23-0.09,0.46-0.18,0.67c-0.13,0.29-0.33,0.56-0.57,0.78
		c-0.45,0.4-1.02,0.6-1.62,0.57c-0.59-0.03-1.13-0.29-1.51-0.72c-0.32-0.36-0.5-0.81-0.54-1.29c-0.01-0.1-0.01-0.2,0-0.3l0.05-0.63
		l0.75-8.57c0.01-0.18-0.05-0.36-0.17-0.49c-0.12-0.13-0.28-0.21-0.46-0.22c-0.36-0.02-0.68,0.24-0.72,0.61l-0.48,6.81l-0.01,0.09
		c-0.07,0.59-0.35,1.11-0.76,1.48c-0.41,0.38-0.96,0.6-1.54,0.59c-0.37-0.01-0.73-0.1-1.04-0.28c-0.2-0.11-0.37-0.25-0.53-0.42
		c-0.12-0.13-0.22-0.27-0.31-0.43c-0.2-0.36-0.29-0.77-0.26-1.2l0.24-3.5l0.13-1.86l0.66-9.08c0.01-0.13,0.02-0.28,0.04-0.42
		c0.01-0.1,0.02-0.2,0.03-0.3c0.1-0.87,0.27-1.91,0.48-3.02c0.06-0.3,0.12-0.6,0.18-0.91c0.04-0.2,0.08-0.4,0.12-0.6
		c0.69-3.3,1.64-7.01,2.3-9.59c0.3-1.17,0.5-1.96,0.6-2.41c0.06-0.26,0.07-0.52,0.02-0.78l-0.51-3.2c0.05-0.01,0.11-0.02,0.17-0.03
		l0.02-0.01l6.68-1.52l1.83-0.45c0.66-0.16,1.32-0.32,1.97-0.48c0.66-0.16,1.33-0.32,1.99-0.49l0.4-0.1
		c0.64-0.16,1.3-0.32,1.96-0.51c0.17-0.05,0.34-0.1,0.51-0.15C260.3,388.34,260.52,388.27,260.73,388.22"/>
	<path style="clip-path:url(#SVGID_00000129165911174372279600000015409033745456235956_);fill:#5692CE;" d="M251.61,420.05
		c0.02,0,0.04,0,0.06,0c0.41,0.02,0.77,0.2,1.03,0.49c0.26,0.29,0.39,0.67,0.37,1.07l-0.93,11.37c-0.05,0.78,0.49,1.45,1.24,1.51
		c0.78,0.06,1.5-0.51,1.59-1.3l0.14-1.83c0.43-5.72,0.81-9.69,0.81-9.71c0.09-0.76,0.78-1.34,1.54-1.31
		c0.41,0.02,0.77,0.2,1.03,0.49c0.26,0.29,0.4,0.68,0.37,1.08l-0.85,10.05c-0.01,0.14,0,0.29,0.04,0.43
		c0.11,0.43,0.41,0.77,0.84,0.93c0.15,0.06,0.29,0.08,0.43,0.09c0.1,0.01,0.21,0,0.34-0.02c0.22-0.04,0.44-0.14,0.63-0.29
		c0.16-0.14,0.25-0.23,0.31-0.33c0.08-0.11,0.13-0.22,0.17-0.34c0.04-0.12,0.06-0.19,0.07-0.26l0.01-0.1l1.08-13.04
		c0.05-0.65,0.1-1.3,0.12-1.95c0.01-0.16,0.01-0.32,0.01-0.48c0.01-0.55,0.02-1.12,0.16-1.71c0.06-0.23,0.17-0.43,0.34-0.6
		c0.46-0.46,1.22-0.63,2.22-0.74l0.39-0.04c0.66-0.07,1.74,0.17,2.48,0.41c-0.07-0.62-0.38-1.63-0.86-2.3
		c-0.26-0.41-0.59-0.85-0.96-1.34c-1.15-1.54-2.33-3.23-3.21-5.12c-1.07-2.29-1.55-5.02-1.48-8.36c0.01-0.27-0.01-1.16-0.16-4.02
		c-0.36-0.54-0.52-1.22-0.43-1.89c0.04-0.31-0.04-1.27-0.12-1.48l-0.14-0.31c-0.07-0.15-0.13-0.28-0.18-0.38l0.15,0.49l-0.45,0.13
		c-0.66,0.19-1.33,0.35-1.98,0.51l-6.19,1.51l-6.15,1.4l0.39,2.45c0.06,0.36,0.05,0.73-0.04,1.09c-0.11,0.46-0.31,1.26-0.61,2.43
		l-0.03,0.12c-0.67,2.62-1.58,6.21-2.26,9.43l-0.12,0.6c-0.06,0.31-0.12,0.61-0.18,0.9c-0.22,1.17-0.38,2.17-0.47,2.96l-0.03,0.28
		c-0.02,0.15-0.03,0.28-0.04,0.41l-1.04,14.44c-0.02,0.27,0.04,0.53,0.16,0.76c0.05,0.1,0.12,0.19,0.19,0.27
		c0.1,0.11,0.21,0.19,0.33,0.26c0.2,0.11,0.42,0.17,0.66,0.18c0.37,0,0.7-0.13,0.98-0.39c0.28-0.26,0.46-0.6,0.5-0.98l0.49-6.87
		c0.09-0.82,0.79-1.39,1.56-1.35c0.39,0.02,0.75,0.2,1.01,0.49c0.26,0.29,0.39,0.67,0.36,1.07l-0.81,9.22c0,0.05,0,0.11,0,0.17
		c0.02,0.32,0.14,0.6,0.34,0.82c0.24,0.27,0.58,0.44,0.96,0.45c0.38,0.02,0.76-0.11,1.05-0.37c0.16-0.14,0.29-0.31,0.37-0.5
		c0.07-0.14,0.1-0.28,0.12-0.43l0.81-9.29C250.21,420.62,250.86,420.05,251.61,420.05 M253.5,436.1c-0.09,0-0.18,0-0.26-0.01
		c-1.63-0.14-2.81-1.56-2.69-3.23l0.09-1.04c-0.17,0.37-0.43,0.71-0.74,0.99c-0.61,0.54-1.38,0.82-2.19,0.77
		c-0.8-0.04-1.54-0.39-2.07-0.99c-0.44-0.49-0.69-1.1-0.74-1.77c-0.01-0.13-0.01-0.27,0-0.41l0.08-0.9
		c-0.15,0.23-0.33,0.44-0.53,0.63c-0.58,0.53-1.3,0.82-2.09,0.8c-0.5-0.01-0.99-0.14-1.42-0.38c-0.26-0.15-0.51-0.34-0.72-0.57
		c-0.16-0.18-0.3-0.38-0.42-0.59c-0.27-0.49-0.39-1.06-0.35-1.64l1.04-14.45c0.01-0.14,0.02-0.29,0.04-0.45l0.03-0.31
		c0.1-0.83,0.26-1.87,0.49-3.08c0.06-0.3,0.12-0.61,0.18-0.92l0.12-0.56c0.7-3.31,1.62-6.92,2.29-9.55l0.03-0.12
		c0.3-1.16,0.5-1.94,0.6-2.39c0.04-0.16,0.04-0.32,0.01-0.47l-0.64-3.99l0.95-0.15l12.85-3.03c0.63-0.15,1.28-0.31,1.93-0.5
		l0.57-0.17c0.21-0.07,0.42-0.13,0.62-0.18l0.6-0.15l0.29,0.54c0.08,0.14,0.17,0.33,0.3,0.6l0.15,0.35c0.21,0.5,0.29,1.82,0.23,2.3
		c-0.04,0.34,0.04,0.65,0.24,0.89l0.17,0.21l0.01,0.27c0.09,1.63,0.19,3.71,0.18,4.39c-0.06,3.09,0.37,5.59,1.33,7.64
		c0.82,1.76,1.95,3.37,3.05,4.84c0.39,0.53,0.75,1,1,1.4c0.84,1.17,1.36,3.16,1.07,4.14c-0.14,0.47-0.42,0.68-0.64,0.77
		c-0.21,0.09-0.56,0.17-0.99-0.04c-0.49-0.24-1.77-0.54-2.23-0.49l-0.28,0.03c-0.87,0.1-1.19,0.2-1.3,0.26
		c-0.08,0.38-0.08,0.8-0.09,1.24c0,0.17-0.01,0.35-0.01,0.52c-0.02,0.67-0.07,1.34-0.12,2l-0.47,6.33l-0.64,6.95
		c-0.03,0.17-0.06,0.31-0.11,0.44l-0.04,0.1c-0.08,0.24-0.2,0.47-0.35,0.68c-0.13,0.2-0.31,0.4-0.51,0.58
		c-0.05,0.05-0.1,0.09-0.15,0.12c-0.39,0.3-0.85,0.51-1.33,0.6c-0.26,0.04-0.48,0.06-0.71,0.04c-0.29-0.02-0.56-0.07-0.82-0.16
		l-0.11-0.04c-0.78-0.29-1.4-0.92-1.7-1.71l-0.02,0.26C256.38,434.93,255.03,436.1,253.5,436.1"/>
	
		<path style="clip-path:url(#SVGID_00000129165911174372279600000015409033745456235956_);fill:none;stroke:#5692CE;stroke-miterlimit:10;" d="
		M251.61,420.05c0.02,0,0.04,0,0.06,0c0.41,0.02,0.77,0.2,1.03,0.49c0.26,0.29,0.39,0.67,0.37,1.07l-0.93,11.37
		c-0.05,0.78,0.49,1.45,1.24,1.51c0.78,0.06,1.5-0.51,1.59-1.3l0.14-1.83c0.43-5.72,0.81-9.69,0.81-9.71
		c0.09-0.76,0.78-1.34,1.54-1.31c0.41,0.02,0.77,0.2,1.03,0.49c0.26,0.29,0.4,0.68,0.37,1.08l-0.85,10.05
		c-0.01,0.14,0,0.29,0.04,0.43c0.11,0.43,0.41,0.77,0.84,0.93c0.15,0.06,0.29,0.08,0.43,0.09c0.1,0.01,0.21,0,0.34-0.02
		c0.22-0.04,0.44-0.14,0.63-0.29c0.16-0.14,0.25-0.23,0.31-0.33c0.08-0.11,0.13-0.22,0.17-0.34c0.04-0.12,0.06-0.19,0.07-0.26
		l0.01-0.1l1.08-13.04c0.05-0.65,0.1-1.3,0.12-1.95c0.01-0.16,0.01-0.32,0.01-0.48c0.01-0.55,0.02-1.12,0.16-1.71
		c0.06-0.23,0.17-0.43,0.34-0.6c0.46-0.46,1.22-0.63,2.22-0.74l0.39-0.04c0.66-0.07,1.74,0.17,2.48,0.41
		c-0.07-0.62-0.38-1.63-0.86-2.3c-0.26-0.41-0.59-0.85-0.96-1.34c-1.15-1.54-2.33-3.23-3.21-5.12c-1.07-2.29-1.55-5.02-1.48-8.36
		c0.01-0.27-0.01-1.16-0.16-4.02c-0.36-0.54-0.52-1.22-0.43-1.89c0.04-0.31-0.04-1.27-0.12-1.48l-0.14-0.31
		c-0.07-0.15-0.13-0.28-0.18-0.38l0.15,0.49l-0.45,0.13c-0.66,0.19-1.33,0.35-1.98,0.51l-6.19,1.51l-6.15,1.4l0.39,2.45
		c0.06,0.36,0.05,0.73-0.04,1.09c-0.11,0.46-0.31,1.26-0.61,2.43l-0.03,0.12c-0.67,2.62-1.58,6.21-2.26,9.43l-0.12,0.6
		c-0.06,0.31-0.12,0.61-0.18,0.9c-0.22,1.17-0.38,2.17-0.47,2.96l-0.03,0.28c-0.02,0.15-0.03,0.28-0.04,0.41l-1.04,14.44
		c-0.02,0.27,0.04,0.53,0.16,0.76c0.05,0.1,0.12,0.19,0.19,0.27c0.1,0.11,0.21,0.19,0.33,0.26c0.2,0.11,0.42,0.17,0.66,0.18
		c0.37,0,0.7-0.13,0.98-0.39c0.28-0.26,0.46-0.6,0.5-0.98l0.49-6.87c0.09-0.82,0.79-1.39,1.56-1.35c0.39,0.02,0.75,0.2,1.01,0.49
		c0.26,0.29,0.39,0.67,0.36,1.07l-0.81,9.22c0,0.05,0,0.11,0,0.17c0.02,0.32,0.14,0.6,0.34,0.82c0.24,0.27,0.58,0.44,0.96,0.45
		c0.38,0.02,0.76-0.11,1.05-0.37c0.16-0.14,0.29-0.31,0.37-0.5c0.07-0.14,0.1-0.28,0.12-0.43l0.81-9.29
		C250.21,420.62,250.86,420.05,251.61,420.05z M253.5,436.1c-0.09,0-0.18,0-0.26-0.01c-1.63-0.14-2.81-1.56-2.69-3.23l0.09-1.04
		c-0.17,0.37-0.43,0.71-0.74,0.99c-0.61,0.54-1.38,0.82-2.19,0.77c-0.8-0.04-1.54-0.39-2.07-0.99c-0.44-0.49-0.69-1.1-0.74-1.77
		c-0.01-0.13-0.01-0.27,0-0.41l0.08-0.9c-0.15,0.23-0.33,0.44-0.53,0.63c-0.58,0.53-1.3,0.82-2.09,0.8
		c-0.5-0.01-0.99-0.14-1.42-0.38c-0.26-0.15-0.51-0.34-0.72-0.57c-0.16-0.18-0.3-0.38-0.42-0.59c-0.27-0.49-0.39-1.06-0.35-1.64
		l1.04-14.45c0.01-0.14,0.02-0.29,0.04-0.45l0.03-0.31c0.1-0.83,0.26-1.87,0.49-3.08c0.06-0.3,0.12-0.61,0.18-0.92l0.12-0.56
		c0.7-3.31,1.62-6.92,2.29-9.55l0.03-0.12c0.3-1.16,0.5-1.94,0.6-2.39c0.04-0.16,0.04-0.32,0.01-0.47l-0.64-3.99l0.95-0.15
		l12.85-3.03c0.63-0.15,1.28-0.31,1.93-0.5l0.57-0.17c0.21-0.07,0.42-0.13,0.62-0.18l0.6-0.15l0.29,0.54
		c0.08,0.14,0.17,0.33,0.3,0.6l0.15,0.35c0.21,0.5,0.29,1.82,0.23,2.3c-0.04,0.34,0.04,0.65,0.24,0.89l0.17,0.21l0.01,0.27
		c0.09,1.63,0.19,3.71,0.18,4.39c-0.06,3.09,0.37,5.59,1.33,7.64c0.82,1.76,1.95,3.37,3.05,4.84c0.39,0.53,0.75,1,1,1.4
		c0.84,1.17,1.36,3.16,1.07,4.14c-0.14,0.47-0.42,0.68-0.64,0.77c-0.21,0.09-0.56,0.17-0.99-0.04c-0.49-0.24-1.77-0.54-2.23-0.49
		l-0.28,0.03c-0.87,0.1-1.19,0.2-1.3,0.26c-0.08,0.38-0.08,0.8-0.09,1.24c0,0.17-0.01,0.35-0.01,0.52c-0.02,0.67-0.07,1.34-0.12,2
		l-0.47,6.33l-0.64,6.95c-0.03,0.17-0.06,0.31-0.11,0.44l-0.04,0.1c-0.08,0.24-0.2,0.47-0.35,0.68c-0.13,0.2-0.31,0.4-0.51,0.58
		c-0.05,0.05-0.1,0.09-0.15,0.12c-0.39,0.3-0.85,0.51-1.33,0.6c-0.26,0.04-0.48,0.06-0.71,0.04c-0.29-0.02-0.56-0.07-0.82-0.16
		l-0.11-0.04c-0.78-0.29-1.4-0.92-1.7-1.71l-0.02,0.26C256.38,434.93,255.03,436.1,253.5,436.1z"/>
	<path style="clip-path:url(#SVGID_00000129165911174372279600000015409033745456235956_);fill:#5692CE;" d="M255.95,337.94
		c0.09,0.67,3.58,24.12,3.69,25.32c-0.02,0-0.03,0-0.05,0.01c-1.23,0.15-2.29,0.32-3.14,0.49l-0.1,0.02
		c-0.07,0.01-0.15,0.03-0.21,0.04c-0.16,0.03-0.31,0.07-0.46,0.11l-8.85,2.18l-1.81,0.45l-3.4,0.85c-0.34,0.08-0.66,0.21-0.96,0.39
		L236,337.31c-0.21-1.3,0.85-2.46,2.17-2.37c4.22,0.29,12.48,0.86,15.97,1.24C255.07,336.27,255.82,337,255.95,337.94"/>
	
		<path style="clip-path:url(#SVGID_00000129165911174372279600000015409033745456235956_);fill:none;stroke:#5692CE;stroke-miterlimit:10;" d="
		M255.95,337.94c0.09,0.67,3.58,24.12,3.69,25.32c-0.02,0-0.03,0-0.05,0.01c-1.23,0.15-2.29,0.32-3.14,0.49l-0.1,0.02
		c-0.07,0.01-0.15,0.03-0.21,0.04c-0.16,0.03-0.31,0.07-0.46,0.11l-8.85,2.18l-1.81,0.45l-3.4,0.85c-0.34,0.08-0.66,0.21-0.96,0.39
		L236,337.31c-0.21-1.3,0.85-2.46,2.17-2.37c4.22,0.29,12.48,0.86,15.97,1.24C255.07,336.27,255.82,337,255.95,337.94"/>
	<path style="clip-path:url(#SVGID_00000129165911174372279600000015409033745456235956_);fill:#5692CE;" d="M238.03,335.73
		c-0.35,0-0.69,0.15-0.93,0.41c-0.26,0.28-0.37,0.66-0.31,1.04l4.51,29.48c0.05-0.01,0.09-0.02,0.13-0.04l14.06-3.48
		c0.16-0.04,0.32-0.08,0.48-0.11l0.31-0.07c0.7-0.14,1.52-0.28,2.46-0.41c-0.42-3.01-1.99-13.71-2.89-19.78
		c-0.39-2.66-0.67-4.55-0.7-4.74c-0.08-0.57-0.53-1.02-1.11-1.08c-3.43-0.37-11.46-0.93-15.93-1.24
		C238.08,335.73,238.06,335.73,238.03,335.73 M240.04,369.07l-4.84-31.64c-0.14-0.86,0.12-1.72,0.71-2.37
		c0.59-0.65,1.43-0.98,2.3-0.93c4.49,0.3,12.54,0.87,16,1.24c1.31,0.14,2.35,1.15,2.52,2.45c0.02,0.18,0.3,2.06,0.69,4.71
		c1.41,9.55,2.92,19.81,3,20.63l0.08,0.78l-0.78,0.09c-1.25,0.16-2.29,0.32-3.12,0.49l-0.29,0.06c-0.17,0.04-0.31,0.07-0.45,0.1
		l-14.06,3.48c-0.27,0.07-0.52,0.17-0.76,0.3L240.04,369.07z"/>
	
		<path style="clip-path:url(#SVGID_00000129165911174372279600000015409033745456235956_);fill:none;stroke:#5692CE;stroke-miterlimit:10;" d="
		M238.03,335.73c-0.35,0-0.69,0.15-0.93,0.41c-0.26,0.28-0.37,0.66-0.31,1.04l4.51,29.48c0.05-0.01,0.09-0.02,0.13-0.04l14.06-3.48
		c0.16-0.04,0.32-0.08,0.48-0.11l0.31-0.07c0.7-0.14,1.52-0.28,2.46-0.41c-0.42-3.01-1.99-13.71-2.89-19.78
		c-0.39-2.66-0.67-4.55-0.7-4.74c-0.08-0.57-0.53-1.02-1.11-1.08c-3.43-0.37-11.46-0.93-15.93-1.24
		C238.08,335.73,238.06,335.73,238.03,335.73z M240.04,369.07l-4.84-31.64c-0.14-0.86,0.12-1.72,0.71-2.37
		c0.59-0.65,1.43-0.98,2.3-0.93c4.49,0.3,12.54,0.87,16,1.24c1.31,0.14,2.35,1.15,2.52,2.45c0.02,0.18,0.3,2.06,0.69,4.71
		c1.41,9.55,2.92,19.81,3,20.63l0.08,0.78l-0.78,0.09c-1.25,0.16-2.29,0.32-3.12,0.49l-0.29,0.06c-0.17,0.04-0.31,0.07-0.45,0.1
		l-14.06,3.48c-0.27,0.07-0.52,0.17-0.76,0.3L240.04,369.07z"/>
	<path style="clip-path:url(#SVGID_00000129165911174372279600000015409033745456235956_);fill:#5692CE;" d="M277.26,361.98
		c0.03,0.06,0.06,0.11,0.09,0.17l0.01,0.01l3.5,5.86l1,1.61c0.36,0.58,0.71,1.16,1.07,1.73c0.36,0.58,0.71,1.16,1.07,1.74l0.23,0.36
		c0.34,0.56,0.7,1.13,1.08,1.69c0.1,0.15,0.2,0.3,0.3,0.43c0.14,0.2,0.27,0.38,0.39,0.57c-0.03,0.03-0.07,0.07-0.11,0.11
		c-0.12,0.12-0.25,0.24-0.33,0.32c-0.07,0.06-0.14,0.13-0.21,0.18l-0.07,0.06c-0.25,0.21-1.3,0.65-1.74,0.74
		c-0.41,0.08-0.77,0.26-1.04,0.53c-0.1,0.1-0.19,0.21-0.26,0.33c-2.08,0.8-3.55,1.35-4.05,1.5c-2.61,0.79-5.16,1.93-7.17,3.81
		c-1.44,1.34-2.63,2.92-3.77,4.52c-0.37,0.52-0.7,0.98-0.99,1.34c-0.76,1.03-2.29,1.98-3.01,2c-0.27,0.01-0.42-0.12-0.39-0.42
		c0.08-0.61-0.01-2.09-0.28-2.7c-0.05-0.11-0.1-0.23-0.15-0.35c-0.27-0.6-0.61-1.29-1.02-1.49c-0.09-0.04-0.18-0.06-0.27-0.06
		c-0.68,0.05-1.33,0.3-1.98,0.48c-0.77,0.22-1.54,0.4-2.31,0.59c-1.32,0.33-2.64,0.64-3.96,0.97l-1.81,0.44l-6.55,1.49l-0.09,0.02
		c-0.04,0.01-0.08,0.02-0.12,0.02c-0.1,0.02-0.21,0.02-0.31,0.02l-0.08-0.01c-0.19,0-0.38-0.03-0.57-0.08
		c-0.19-0.05-0.36-0.13-0.53-0.23c-0.03-0.02-0.06-0.04-0.09-0.06c-0.02-0.01-0.03-0.02-0.05-0.03c-0.3-0.21-0.54-0.48-0.71-0.79
		c-0.09-0.17-0.15-0.32-0.19-0.48c-0.05-0.21-0.08-0.42-0.08-0.62l0.01-0.06c0.04-0.73,0.42-1.36,1.01-1.73
		c0.19-0.12,0.4-0.21,0.63-0.27l0.26-0.06l9.55-2.23c0.18-0.05,0.33-0.16,0.42-0.31c0.09-0.15,0.11-0.33,0.07-0.51
		c-0.1-0.35-0.45-0.56-0.79-0.49c-0.02,0-3.91,0.88-9.45,2.23c-0.3,0.07-0.6,0.14-0.91,0.22c-0.27,0.07-0.54,0.13-0.81,0.2
		l-0.09,0.02c-1.2,0.24-2.39-0.53-2.66-1.72c-0.27-1.16,0.46-2.3,1.65-2.6l1.21-0.29l0.91-0.21l8.96-2.12
		c0.18-0.05,0.33-0.16,0.42-0.31c0.09-0.15,0.11-0.33,0.07-0.51c-0.1-0.35-0.45-0.57-0.8-0.49l-8.87,2.05l-0.15,0.03l-0.09,0.02
		c-0.23,0.05-0.46,0.06-0.69,0.03c-0.32-0.03-0.63-0.13-0.92-0.3c-0.52-0.3-0.89-0.79-1.04-1.36c-0.15-0.57-0.08-1.16,0.22-1.66
		c0.24-0.42,0.61-0.73,1.06-0.91c0.09-0.04,0.19-0.07,0.29-0.1l0.61-0.14l8.38-1.93c0.18-0.05,0.33-0.16,0.42-0.31
		c0.09-0.15,0.12-0.34,0.07-0.51c-0.09-0.35-0.44-0.57-0.8-0.49l-6.62,1.65l-0.09,0.02c-0.58,0.12-1.16,0.01-1.64-0.27
		c-0.48-0.28-0.86-0.73-1.04-1.28c-0.11-0.36-0.13-0.72-0.06-1.07c0.04-0.22,0.12-0.43,0.24-0.63c0.09-0.15,0.19-0.3,0.31-0.42
		c0.28-0.3,0.65-0.51,1.06-0.61l3.4-0.85l1.81-0.45l8.85-2.18c0.13-0.03,0.27-0.06,0.42-0.1c0.1-0.02,0.19-0.04,0.29-0.06
		c0.86-0.18,1.89-0.33,3.02-0.47c0.3-0.04,0.61-0.08,0.92-0.11c0.2-0.02,0.4-0.04,0.61-0.07c3.35-0.36,7.18-0.61,9.83-0.78
		c1.2-0.08,2.01-0.13,2.48-0.17c0.26-0.02,0.52-0.1,0.75-0.22L277.26,361.98z"/>
	
		<path style="clip-path:url(#SVGID_00000129165911174372279600000015409033745456235956_);fill:none;stroke:#5692CE;stroke-miterlimit:10;" d="
		M277.26,361.98c0.03,0.06,0.06,0.11,0.09,0.17l0.01,0.01l3.5,5.86l1,1.61c0.36,0.58,0.71,1.16,1.07,1.73
		c0.36,0.58,0.71,1.16,1.07,1.74l0.23,0.36c0.34,0.56,0.7,1.13,1.08,1.69c0.1,0.15,0.2,0.3,0.3,0.43c0.14,0.2,0.27,0.38,0.39,0.57
		c-0.03,0.03-0.07,0.07-0.11,0.11c-0.12,0.12-0.25,0.24-0.33,0.32c-0.07,0.06-0.14,0.13-0.21,0.18l-0.07,0.06
		c-0.25,0.21-1.3,0.65-1.74,0.74c-0.41,0.08-0.77,0.26-1.04,0.53c-0.1,0.1-0.19,0.21-0.26,0.33c-2.08,0.8-3.55,1.35-4.05,1.5
		c-2.61,0.79-5.16,1.93-7.17,3.81c-1.44,1.34-2.63,2.92-3.77,4.52c-0.37,0.52-0.7,0.98-0.99,1.34c-0.76,1.03-2.29,1.98-3.01,2
		c-0.27,0.01-0.42-0.12-0.39-0.42c0.08-0.61-0.01-2.09-0.28-2.7c-0.05-0.11-0.1-0.23-0.15-0.35c-0.27-0.6-0.61-1.29-1.02-1.49
		c-0.09-0.04-0.18-0.06-0.27-0.06c-0.68,0.05-1.33,0.3-1.98,0.48c-0.77,0.22-1.54,0.4-2.31,0.59c-1.32,0.33-2.64,0.64-3.96,0.97
		l-1.81,0.44l-6.55,1.49l-0.09,0.02c-0.04,0.01-0.08,0.02-0.12,0.02c-0.1,0.02-0.21,0.02-0.31,0.02l-0.08-0.01
		c-0.19,0-0.38-0.03-0.57-0.08c-0.19-0.05-0.36-0.13-0.53-0.23c-0.03-0.02-0.06-0.04-0.09-0.06c-0.02-0.01-0.03-0.02-0.05-0.03
		c-0.3-0.21-0.54-0.48-0.71-0.79c-0.09-0.17-0.15-0.32-0.19-0.48c-0.05-0.21-0.08-0.42-0.08-0.62l0.01-0.06
		c0.04-0.73,0.42-1.36,1.01-1.73c0.19-0.12,0.4-0.21,0.63-0.27l0.26-0.06l9.55-2.23c0.18-0.05,0.33-0.16,0.42-0.31
		c0.09-0.15,0.11-0.33,0.07-0.51c-0.1-0.35-0.45-0.56-0.79-0.49c-0.02,0-3.91,0.88-9.45,2.23c-0.3,0.07-0.6,0.14-0.91,0.22
		c-0.27,0.07-0.54,0.13-0.81,0.2l-0.09,0.02c-1.2,0.24-2.39-0.53-2.66-1.72c-0.27-1.16,0.46-2.3,1.65-2.6l1.21-0.29l0.91-0.21
		l8.96-2.12c0.18-0.05,0.33-0.16,0.42-0.31c0.09-0.15,0.11-0.33,0.07-0.51c-0.1-0.35-0.45-0.57-0.8-0.49l-8.87,2.05l-0.15,0.03
		l-0.09,0.02c-0.23,0.05-0.46,0.06-0.69,0.03c-0.32-0.03-0.63-0.13-0.92-0.3c-0.52-0.3-0.89-0.79-1.04-1.36
		c-0.15-0.57-0.08-1.16,0.22-1.66c0.24-0.42,0.61-0.73,1.06-0.91c0.09-0.04,0.19-0.07,0.29-0.1l0.61-0.14l8.38-1.93
		c0.18-0.05,0.33-0.16,0.42-0.31c0.09-0.15,0.12-0.34,0.07-0.51c-0.09-0.35-0.44-0.57-0.8-0.49l-6.62,1.65l-0.09,0.02
		c-0.58,0.12-1.16,0.01-1.64-0.27c-0.48-0.28-0.86-0.73-1.04-1.28c-0.11-0.36-0.13-0.72-0.06-1.07c0.04-0.22,0.12-0.43,0.24-0.63
		c0.09-0.15,0.19-0.3,0.31-0.42c0.28-0.3,0.65-0.51,1.06-0.61l3.4-0.85l1.81-0.45l8.85-2.18c0.13-0.03,0.27-0.06,0.42-0.1
		c0.1-0.02,0.19-0.04,0.29-0.06c0.86-0.18,1.89-0.33,3.02-0.47c0.3-0.04,0.61-0.08,0.92-0.11c0.2-0.02,0.4-0.04,0.61-0.07
		c3.35-0.36,7.18-0.61,9.83-0.78c1.2-0.08,2.01-0.13,2.48-0.17c0.26-0.02,0.52-0.1,0.75-0.22L277.26,361.98z"/>
	<path style="clip-path:url(#SVGID_00000129165911174372279600000015409033745456235956_);fill:#5692CE;" d="M261.19,387.39
		C261.19,387.39,261.18,387.4,261.19,387.39C261.18,387.4,261.19,387.39,261.19,387.39 M261.16,385.8c0.2,0,0.39,0.05,0.58,0.14
		c0.65,0.32,1.06,1.13,1.39,1.88l0.16,0.35c0.27,0.61,0.38,1.71,0.38,2.5c0.57-0.27,1.43-0.86,1.92-1.53
		c0.31-0.38,0.63-0.83,0.98-1.33c1.11-1.57,2.35-3.22,3.88-4.64c1.84-1.72,4.29-3.03,7.49-3.99c0.31-0.09,1.22-0.41,3.77-1.4
		c0.07-0.09,0.14-0.17,0.22-0.24c0.38-0.38,0.89-0.64,1.46-0.75c0.31-0.06,1.19-0.43,1.38-0.57l0.18-0.16
		c-0.13-0.18-0.22-0.32-0.31-0.45c-0.38-0.57-0.74-1.15-1.09-1.72l-3.37-5.44l-3.22-5.41l-2.21,1.13c-0.32,0.17-0.68,0.27-1.04,0.3
		c-0.46,0.04-1.25,0.09-2.41,0.17l-0.12,0.01c-2.57,0.16-6.45,0.41-9.77,0.77l-0.61,0.07c-0.31,0.03-0.61,0.07-0.91,0.11
		c-1.18,0.15-2.17,0.3-2.97,0.46l-0.28,0.06c-0.14,0.03-0.28,0.06-0.4,0.09l-14.05,3.48c-0.26,0.06-0.49,0.2-0.67,0.38
		c-0.08,0.08-0.14,0.17-0.2,0.27c-0.07,0.13-0.12,0.26-0.15,0.4c-0.05,0.22-0.03,0.45,0.04,0.68c0.1,0.34,0.34,0.63,0.67,0.82
		c0.33,0.19,0.72,0.25,1.09,0.18l6.68-1.66c0.8-0.16,1.56,0.31,1.76,1.06c0.1,0.39,0.05,0.78-0.15,1.12
		c-0.2,0.34-0.52,0.58-0.9,0.68l-9.01,2.08c-0.04,0.01-0.11,0.03-0.17,0.06c-0.29,0.11-0.52,0.31-0.67,0.57
		c-0.18,0.31-0.23,0.69-0.14,1.05c0.1,0.37,0.34,0.68,0.67,0.88c0.19,0.11,0.38,0.17,0.59,0.2c0.16,0.02,0.31,0.01,0.45-0.02
		l9.08-2.1c0.78-0.16,1.54,0.31,1.75,1.06c0.1,0.39,0.05,0.79-0.15,1.13c-0.2,0.34-0.52,0.58-0.9,0.68l-11.1,2.63
		c-0.76,0.19-1.23,0.91-1.05,1.64c0.18,0.77,0.95,1.27,1.73,1.11l1.78-0.43c5.43-1.32,9.44-2.23,9.5-2.24
		c0.73-0.15,1.49,0.31,1.7,1.06c0.1,0.39,0.05,0.79-0.14,1.13c-0.2,0.35-0.53,0.59-0.92,0.69l-9.82,2.3
		c-0.14,0.03-0.27,0.09-0.39,0.17c-0.38,0.23-0.61,0.64-0.64,1.09c-0.01,0.16,0.01,0.29,0.05,0.44c0.02,0.09,0.07,0.19,0.12,0.31
		c0.11,0.2,0.26,0.37,0.46,0.5l0.09,0.06c0.11,0.06,0.22,0.11,0.35,0.15c0.12,0.03,0.24,0.05,0.36,0.05l0.12,0.01
		c0.01,0,0.08-0.01,0.14-0.02l0.24,0.77l-0.08-0.8l12.72-3c0.62-0.15,1.25-0.31,1.86-0.48c0.15-0.04,0.31-0.09,0.46-0.14
		c0.53-0.16,1.08-0.33,1.68-0.37C261.1,385.8,261.13,385.8,261.16,385.8 M263.21,392.41c-0.46,0-0.74-0.2-0.89-0.37
		c-0.16-0.17-0.33-0.48-0.27-0.95c0.07-0.54-0.03-1.86-0.22-2.27l-0.14-0.3c-0.34-0.75-0.53-1.01-0.62-1.11
		c-0.39,0.04-0.8,0.17-1.22,0.3c-0.16,0.05-0.33,0.1-0.49,0.15c-0.64,0.18-1.28,0.34-1.92,0.5l-6.19,1.51l-6.66,1.51
		c-0.06,0.01-0.12,0.02-0.18,0.03c-0.14,0.02-0.28,0.03-0.42,0.03l-0.13-0.01c-0.22,0-0.48-0.04-0.73-0.11
		c-0.25-0.07-0.49-0.18-0.72-0.31c-0.06-0.04-0.12-0.08-0.17-0.12c-0.42-0.28-0.74-0.64-0.97-1.07c-0.12-0.23-0.21-0.44-0.26-0.66
		c-0.07-0.28-0.11-0.56-0.1-0.83l0.01-0.12c0.04-0.83,0.45-1.62,1.11-2.14l-0.26,0.06c-1.63,0.33-3.25-0.71-3.62-2.32
		c-0.37-1.59,0.61-3.15,2.24-3.56l1.01-0.24c-0.4-0.05-0.8-0.18-1.17-0.4c-0.7-0.41-1.2-1.07-1.41-1.85
		c-0.21-0.78-0.1-1.59,0.3-2.27c0.34-0.57,0.84-1,1.46-1.25c0.12-0.05,0.25-0.09,0.38-0.12l0.89-0.2c-0.26-0.07-0.52-0.18-0.76-0.31
		c-0.68-0.39-1.18-1.01-1.4-1.74c-0.15-0.48-0.17-0.99-0.08-1.47c0.06-0.3,0.17-0.6,0.33-0.87c0.12-0.21,0.26-0.4,0.43-0.58
		c0.38-0.41,0.88-0.7,1.44-0.84l14.06-3.48c0.14-0.03,0.29-0.07,0.44-0.1l0.24-0.05c0.89-0.18,1.93-0.34,3.14-0.49
		c0.3-0.04,0.62-0.08,0.93-0.11l0.61-0.07c3.35-0.36,7.25-0.61,9.84-0.78l0.17,0.79l-0.05-0.8c1.14-0.07,1.92-0.12,2.37-0.16
		c0.16-0.02,0.32-0.06,0.46-0.13l3.61-1.85l0.42,0.86l6.85,11.29c0.34,0.55,0.69,1.12,1.06,1.67c0.08,0.13,0.17,0.25,0.25,0.36
		c0.19,0.26,0.33,0.47,0.45,0.66l0.33,0.53l-0.56,0.58c-0.12,0.12-0.26,0.25-0.35,0.33l-0.3,0.27c-0.41,0.34-1.61,0.82-2.1,0.91
		c-0.25,0.05-0.47,0.15-0.62,0.31c-0.06,0.06-0.1,0.12-0.15,0.18l-0.14,0.23l-0.25,0.1c-2.22,0.86-3.61,1.37-4.11,1.52
		c-2.96,0.89-5.2,2.08-6.86,3.63c-1.42,1.33-2.6,2.9-3.66,4.4c-0.38,0.54-0.72,1.02-1.02,1.38c-0.85,1.16-2.58,2.27-3.6,2.29
		C263.24,392.41,263.23,392.41,263.21,392.41"/>
	
		<path style="clip-path:url(#SVGID_00000129165911174372279600000015409033745456235956_);fill:none;stroke:#5692CE;stroke-miterlimit:10;" d="
		M261.19,387.39C261.19,387.39,261.18,387.4,261.19,387.39C261.18,387.4,261.19,387.39,261.19,387.39z M261.16,385.8
		c0.2,0,0.39,0.05,0.58,0.14c0.65,0.32,1.06,1.13,1.39,1.88l0.16,0.35c0.27,0.61,0.38,1.71,0.38,2.5c0.57-0.27,1.43-0.86,1.92-1.53
		c0.31-0.38,0.63-0.83,0.98-1.33c1.11-1.57,2.35-3.22,3.88-4.64c1.84-1.72,4.29-3.03,7.49-3.99c0.31-0.09,1.22-0.41,3.77-1.4
		c0.07-0.09,0.14-0.17,0.22-0.24c0.38-0.38,0.89-0.64,1.46-0.75c0.31-0.06,1.19-0.43,1.38-0.57l0.18-0.16
		c-0.13-0.18-0.22-0.32-0.31-0.45c-0.38-0.57-0.74-1.15-1.09-1.72l-3.37-5.44l-3.22-5.41l-2.21,1.13c-0.32,0.17-0.68,0.27-1.04,0.3
		c-0.46,0.04-1.25,0.09-2.41,0.17l-0.12,0.01c-2.57,0.16-6.45,0.41-9.77,0.77l-0.61,0.07c-0.31,0.03-0.61,0.07-0.91,0.11
		c-1.18,0.15-2.17,0.3-2.97,0.46l-0.28,0.06c-0.14,0.03-0.28,0.06-0.4,0.09l-14.05,3.48c-0.26,0.06-0.49,0.2-0.67,0.38
		c-0.08,0.08-0.14,0.17-0.2,0.27c-0.07,0.13-0.12,0.26-0.15,0.4c-0.05,0.22-0.03,0.45,0.04,0.68c0.1,0.34,0.34,0.63,0.67,0.82
		c0.33,0.19,0.72,0.25,1.09,0.18l6.68-1.66c0.8-0.16,1.56,0.31,1.76,1.06c0.1,0.39,0.05,0.78-0.15,1.12
		c-0.2,0.34-0.52,0.58-0.9,0.68l-9.01,2.08c-0.04,0.01-0.11,0.03-0.17,0.06c-0.29,0.11-0.52,0.31-0.67,0.57
		c-0.18,0.31-0.23,0.69-0.14,1.05c0.1,0.37,0.34,0.68,0.67,0.88c0.19,0.11,0.38,0.17,0.59,0.2c0.16,0.02,0.31,0.01,0.45-0.02
		l9.08-2.1c0.78-0.16,1.54,0.31,1.75,1.06c0.1,0.39,0.05,0.79-0.15,1.13c-0.2,0.34-0.52,0.58-0.9,0.68l-11.1,2.63
		c-0.76,0.19-1.23,0.91-1.05,1.64c0.18,0.77,0.95,1.27,1.73,1.11l1.78-0.43c5.43-1.32,9.44-2.23,9.5-2.24
		c0.73-0.15,1.49,0.31,1.7,1.06c0.1,0.39,0.05,0.79-0.14,1.13c-0.2,0.35-0.53,0.59-0.92,0.69l-9.82,2.3
		c-0.14,0.03-0.27,0.09-0.39,0.17c-0.38,0.23-0.61,0.64-0.64,1.09c-0.01,0.16,0.01,0.29,0.05,0.44c0.02,0.09,0.07,0.19,0.12,0.31
		c0.11,0.2,0.26,0.37,0.46,0.5l0.09,0.06c0.11,0.06,0.22,0.11,0.35,0.15c0.12,0.03,0.24,0.05,0.36,0.05l0.12,0.01
		c0.01,0,0.08-0.01,0.14-0.02l0.24,0.77l-0.08-0.8l12.72-3c0.62-0.15,1.25-0.31,1.86-0.48c0.15-0.04,0.31-0.09,0.46-0.14
		c0.53-0.16,1.08-0.33,1.68-0.37C261.1,385.8,261.13,385.8,261.16,385.8z M263.21,392.41c-0.46,0-0.74-0.2-0.89-0.37
		c-0.16-0.17-0.33-0.48-0.27-0.95c0.07-0.54-0.03-1.86-0.22-2.27l-0.14-0.3c-0.34-0.75-0.53-1.01-0.62-1.11
		c-0.39,0.04-0.8,0.17-1.22,0.3c-0.16,0.05-0.33,0.1-0.49,0.15c-0.64,0.18-1.28,0.34-1.92,0.5l-6.19,1.51l-6.66,1.51
		c-0.06,0.01-0.12,0.02-0.18,0.03c-0.14,0.02-0.28,0.03-0.42,0.03l-0.13-0.01c-0.22,0-0.48-0.04-0.73-0.11
		c-0.25-0.07-0.49-0.18-0.72-0.31c-0.06-0.04-0.12-0.08-0.17-0.12c-0.42-0.28-0.74-0.64-0.97-1.07c-0.12-0.23-0.21-0.44-0.26-0.66
		c-0.07-0.28-0.11-0.56-0.1-0.83l0.01-0.12c0.04-0.83,0.45-1.62,1.11-2.14l-0.26,0.06c-1.63,0.33-3.25-0.71-3.62-2.32
		c-0.37-1.59,0.61-3.15,2.24-3.56l1.01-0.24c-0.4-0.05-0.8-0.18-1.17-0.4c-0.7-0.41-1.2-1.07-1.41-1.85
		c-0.21-0.78-0.1-1.59,0.3-2.27c0.34-0.57,0.84-1,1.46-1.25c0.12-0.05,0.25-0.09,0.38-0.12l0.89-0.2c-0.26-0.07-0.52-0.18-0.76-0.31
		c-0.68-0.39-1.18-1.01-1.4-1.74c-0.15-0.48-0.17-0.99-0.08-1.47c0.06-0.3,0.17-0.6,0.33-0.87c0.12-0.21,0.26-0.4,0.43-0.58
		c0.38-0.41,0.88-0.7,1.44-0.84l14.06-3.48c0.14-0.03,0.29-0.07,0.44-0.1l0.24-0.05c0.89-0.18,1.93-0.34,3.14-0.49
		c0.3-0.04,0.62-0.08,0.93-0.11l0.61-0.07c3.35-0.36,7.25-0.61,9.84-0.78l0.17,0.79l-0.05-0.8c1.14-0.07,1.92-0.12,2.37-0.16
		c0.16-0.02,0.32-0.06,0.46-0.13l3.61-1.85l0.42,0.86l6.85,11.29c0.34,0.55,0.69,1.12,1.06,1.67c0.08,0.13,0.17,0.25,0.25,0.36
		c0.19,0.26,0.33,0.47,0.45,0.66l0.33,0.53l-0.56,0.58c-0.12,0.12-0.26,0.25-0.35,0.33l-0.3,0.27c-0.41,0.34-1.61,0.82-2.1,0.91
		c-0.25,0.05-0.47,0.15-0.62,0.31c-0.06,0.06-0.1,0.12-0.15,0.18l-0.14,0.23l-0.25,0.1c-2.22,0.86-3.61,1.37-4.11,1.52
		c-2.96,0.89-5.2,2.08-6.86,3.63c-1.42,1.33-2.6,2.9-3.66,4.4c-0.38,0.54-0.72,1.02-1.02,1.38c-0.85,1.16-2.58,2.27-3.6,2.29
		C263.24,392.41,263.23,392.41,263.21,392.41z"/>
	<path style="clip-path:url(#SVGID_00000129165911174372279600000015409033745456235956_);fill:#5692CE;" d="M347.14,328.89
		c1.03,4.1,3.03,12.14,3.75,15.57c0.2,0.93-0.27,1.86-1.12,2.27c-0.61,0.3-39.28,20.2-40.38,20.68c-0.01-0.02-0.01-0.03-0.02-0.05
		c-0.54-1.15-1.01-2.07-1.44-2.84c-0.05-0.09-0.1-0.18-0.15-0.27l-0.01-0.01c-0.08-0.14-0.16-0.27-0.24-0.39l-4.8-7.74l-0.99-1.59
		l-1.86-2.97c-0.19-0.3-0.41-0.57-0.67-0.8l45-23.2C345.39,326.96,346.82,327.61,347.14,328.89"/>
	
		<path style="clip-path:url(#SVGID_00000129165911174372279600000015409033745456235956_);fill:none;stroke:#5692CE;stroke-miterlimit:10;" d="
		M347.14,328.89c1.03,4.1,3.03,12.14,3.75,15.57c0.2,0.93-0.27,1.86-1.12,2.27c-0.61,0.3-39.28,20.2-40.38,20.68
		c-0.01-0.02-0.01-0.03-0.02-0.05c-0.54-1.15-1.01-2.07-1.44-2.84c-0.05-0.09-0.1-0.18-0.15-0.27l-0.01-0.01
		c-0.08-0.14-0.16-0.27-0.24-0.39l-4.8-7.74l-0.99-1.59l-1.86-2.97c-0.19-0.3-0.41-0.57-0.67-0.8l45-23.2
		C345.39,326.96,346.82,327.61,347.14,328.89"/>
	<path style="clip-path:url(#SVGID_00000129165911174372279600000015409033745456235956_);fill:#5692CE;" d="M300.48,351
		c0.03,0.04,0.06,0.09,0.08,0.13l8.07,13c0.35,0.62,0.73,1.34,1.14,2.2c3.58-1.8,19.74-10.1,29.79-15.26
		c6.35-3.26,9.67-4.97,9.87-5.06c0.52-0.25,0.8-0.82,0.68-1.39c-0.71-3.37-2.65-11.18-3.75-15.54h0c-0.09-0.37-0.35-0.68-0.7-0.84
		c-0.35-0.16-0.75-0.15-1.09,0.03L300.48,351z M309.04,368.43l-0.4-0.76c-0.52-1.1-0.98-2.01-1.4-2.76l-0.38-0.65l-7.65-12.29
		c-0.15-0.24-0.32-0.45-0.52-0.63l-0.86-0.77l46.03-23.72c0.78-0.4,1.68-0.42,2.48-0.06c0.8,0.36,1.38,1.05,1.59,1.9
		c1.1,4.37,3.05,12.21,3.76,15.6c0.27,1.29-0.37,2.58-1.55,3.16c-0.21,0.1-4.45,2.28-9.83,5.04c-15.71,8.07-29.87,15.34-30.58,15.65
		L309.04,368.43z"/>
	
		<path style="clip-path:url(#SVGID_00000129165911174372279600000015409033745456235956_);fill:none;stroke:#5692CE;stroke-miterlimit:10;" d="
		M300.48,351c0.03,0.04,0.06,0.09,0.08,0.13l8.07,13c0.35,0.62,0.73,1.34,1.14,2.2c3.58-1.8,19.74-10.1,29.79-15.26
		c6.35-3.26,9.67-4.97,9.87-5.06c0.52-0.25,0.8-0.82,0.68-1.39c-0.71-3.37-2.65-11.18-3.75-15.54h0c-0.09-0.37-0.35-0.68-0.7-0.84
		c-0.35-0.16-0.75-0.15-1.09,0.03L300.48,351z M309.04,368.43l-0.4-0.76c-0.52-1.1-0.98-2.01-1.4-2.76l-0.38-0.65l-7.65-12.29
		c-0.15-0.24-0.32-0.45-0.52-0.63l-0.86-0.77l46.03-23.72c0.78-0.4,1.68-0.42,2.48-0.06c0.8,0.36,1.38,1.05,1.59,1.9
		c1.1,4.37,3.05,12.21,3.76,15.6c0.27,1.29-0.37,2.58-1.55,3.16c-0.21,0.1-4.45,2.28-9.83,5.04c-15.71,8.07-29.87,15.34-30.58,15.65
		L309.04,368.43z"/>
	<path style="clip-path:url(#SVGID_00000129165911174372279600000015409033745456235956_);fill:#5692CE;" d="M370.72,438.33
		c0.93,0.93,0.76,2.49-0.36,3.2c-3.58,2.25-10.6,6.64-13.64,8.38c-0.82,0.47-1.86,0.32-2.51-0.36c-0.47-0.49-32.6-32.64-33.39-33.54
		c0.01-0.01,0.02-0.02,0.04-0.04c0.47-0.44,0.91-0.86,1.29-1.24c0.36-0.36,0.68-0.69,0.96-1c0.07-0.08,0.15-0.16,0.21-0.23
		c0.1-0.11,0.21-0.23,0.31-0.35l5.88-6.96l1.21-1.43l2.25-2.69c0.23-0.27,0.41-0.57,0.55-0.88L370.72,438.33z"/>
	
		<path style="clip-path:url(#SVGID_00000129165911174372279600000015409033745456235956_);fill:none;stroke:#5692CE;stroke-miterlimit:10;" d="
		M370.72,438.33c0.93,0.93,0.76,2.49-0.36,3.2c-3.58,2.25-10.6,6.64-13.64,8.38c-0.82,0.47-1.86,0.32-2.51-0.36
		c-0.47-0.49-32.6-32.64-33.39-33.54c0.01-0.01,0.02-0.02,0.04-0.04c0.47-0.44,0.91-0.86,1.29-1.24c0.36-0.36,0.68-0.69,0.96-1
		c0.07-0.08,0.15-0.16,0.21-0.23c0.1-0.11,0.21-0.23,0.31-0.35l5.88-6.96l1.21-1.43l2.25-2.69c0.23-0.27,0.41-0.57,0.55-0.88
		L370.72,438.33z"/>
	<path style="clip-path:url(#SVGID_00000129165911174372279600000015409033745456235956_);fill:#5692CE;" d="M321.96,416.03
		c2.9,2.95,16.54,16.63,25.02,25.12c5.04,5.05,7.67,7.69,7.82,7.84c0.4,0.42,1.03,0.51,1.53,0.22c3.12-1.79,10.56-6.45,13.61-8.37
		c0.33-0.2,0.54-0.54,0.58-0.92c0.04-0.38-0.09-0.76-0.36-1.03l-36.5-36.44c-0.03,0.04-0.06,0.07-0.09,0.11l-9.33,11.08
		c-0.11,0.13-0.22,0.25-0.32,0.37l-0.22,0.24c-0.29,0.32-0.62,0.66-0.99,1.03C322.48,415.53,322.22,415.77,321.96,416.03
		 M355.7,450.98c-0.76,0-1.51-0.3-2.06-0.88c-0.15-0.16-3.52-3.54-7.79-7.81c-12.68-12.71-25.1-25.16-25.62-25.75l-0.51-0.57
		l0.55-0.53c0.51-0.48,0.94-0.89,1.32-1.27c0.35-0.35,0.66-0.68,0.94-0.98l0.2-0.22c0.1-0.11,0.2-0.23,0.29-0.34l9.33-11.08
		c0.18-0.21,0.33-0.45,0.44-0.69l0.47-1.05l38.03,37.97c0.62,0.62,0.92,1.47,0.82,2.34c-0.1,0.87-0.58,1.64-1.32,2.1
		c-3.06,1.92-10.52,6.59-13.67,8.4C356.67,450.86,356.18,450.98,355.7,450.98"/>
	
		<path style="clip-path:url(#SVGID_00000129165911174372279600000015409033745456235956_);fill:none;stroke:#5692CE;stroke-miterlimit:10;" d="
		M321.96,416.03c2.9,2.95,16.54,16.63,25.02,25.12c5.04,5.05,7.67,7.69,7.82,7.84c0.4,0.42,1.03,0.51,1.53,0.22
		c3.12-1.79,10.56-6.45,13.61-8.37c0.33-0.2,0.54-0.54,0.58-0.92c0.04-0.38-0.09-0.76-0.36-1.03l-36.5-36.44
		c-0.03,0.04-0.06,0.07-0.09,0.11l-9.33,11.08c-0.11,0.13-0.22,0.25-0.32,0.37l-0.22,0.24c-0.29,0.32-0.62,0.66-0.99,1.03
		C322.48,415.53,322.22,415.77,321.96,416.03z M355.7,450.98c-0.76,0-1.51-0.3-2.06-0.88c-0.15-0.16-3.52-3.54-7.79-7.81
		c-12.68-12.71-25.1-25.16-25.62-25.75l-0.51-0.57l0.55-0.53c0.51-0.48,0.94-0.89,1.32-1.27c0.35-0.35,0.66-0.68,0.94-0.98l0.2-0.22
		c0.1-0.11,0.2-0.23,0.29-0.34l9.33-11.08c0.18-0.21,0.33-0.45,0.44-0.69l0.47-1.05l38.03,37.97c0.62,0.62,0.92,1.47,0.82,2.34
		c-0.1,0.87-0.58,1.64-1.32,2.1c-3.06,1.92-10.52,6.59-13.67,8.4C356.67,450.86,356.18,450.98,355.7,450.98z"/>
	<path style="clip-path:url(#SVGID_00000129165911174372279600000015409033745456235956_);fill:#5692CE;" d="M298.57,352.37
		l1.86,2.97l0.99,1.58l4.8,7.74c0.07,0.11,0.15,0.24,0.22,0.36c0.05,0.08,0.1,0.17,0.15,0.26c0.43,0.77,0.9,1.7,1.39,2.73
		c0.13,0.27,0.26,0.56,0.39,0.85c0.08,0.18,0.17,0.37,0.25,0.56c1.38,3.07,2.79,6.64,3.77,9.11c0.44,1.12,0.75,1.88,0.93,2.31
		c0.1,0.24,0.25,0.46,0.44,0.65l2.29,2.29c-0.01,0.01-0.02,0.02-0.03,0.03c-0.03,0.03-0.07,0.07-0.1,0.1l-0.01,0.01l-0.07,0.08
		l-4.43,5.06l-1.21,1.44c-0.42,0.5-0.85,1-1.27,1.5c-0.46,0.54-0.91,1.07-1.37,1.61c-0.1,0.12-0.2,0.23-0.3,0.35
		c-0.42,0.49-0.85,1-1.26,1.53c-0.11,0.14-0.22,0.29-0.32,0.42c-0.14,0.19-0.28,0.38-0.42,0.54c-0.13-0.06-0.31-0.16-0.55-0.29
		c-0.09-0.05-0.17-0.1-0.25-0.14l-0.06-0.04c-0.27-0.17-1.03-1.04-1.24-1.42c-0.27-0.5-0.71-0.85-1.23-0.98
		c-1.41-1.73-2.38-2.96-2.68-3.39c-1.56-2.24-3.43-4.31-5.84-5.65c-1.72-0.95-3.59-1.6-5.46-2.19c-0.61-0.19-1.15-0.36-1.58-0.53
		c-1.21-0.4-2.59-1.56-2.83-2.24c-0.09-0.25-0.02-0.44,0.27-0.5c0.6-0.11,1.98-0.65,2.48-1.1c0.09-0.08,0.18-0.16,0.28-0.25
		c0.49-0.44,1.04-0.98,1.1-1.43c0.02-0.1,0.01-0.19-0.03-0.27c-0.26-0.63-0.69-1.17-1.07-1.73c-0.44-0.66-0.86-1.34-1.28-2.01
		c-0.72-1.15-1.42-2.31-2.14-3.47l-0.98-1.59l-3.44-5.77l-0.05-0.08c-0.02-0.04-0.04-0.07-0.06-0.11c-0.05-0.09-0.09-0.19-0.12-0.29
		l-0.02-0.08c-0.06-0.18-0.09-0.37-0.1-0.56c-0.01-0.19,0.01-0.39,0.05-0.58c0.01-0.03,0.02-0.07,0.03-0.1
		c0-0.02,0.01-0.04,0.02-0.06c0.11-0.35,0.29-0.66,0.53-0.92c0.13-0.14,0.26-0.24,0.4-0.33c0.18-0.12,0.37-0.2,0.56-0.26l0.06-0.01
		c0.7-0.19,1.42-0.02,1.95,0.43c0.17,0.14,0.32,0.32,0.45,0.52l0.14,0.23l5.07,8.39c0.1,0.16,0.25,0.26,0.43,0.3
		c0.17,0.04,0.35,0.01,0.5-0.09c0.3-0.2,0.4-0.6,0.22-0.91c-0.01-0.01-2.04-3.45-5.04-8.3c-0.16-0.26-0.32-0.53-0.49-0.79
		c-0.14-0.23-0.29-0.47-0.44-0.71l-0.05-0.08c-0.6-1.06-0.24-2.44,0.81-3.06c1.02-0.61,2.33-0.28,2.98,0.77l0.65,1.07l0.48,0.8
		l4.79,7.86c0.1,0.16,0.25,0.26,0.43,0.3c0.17,0.04,0.35,0.01,0.51-0.09c0.3-0.2,0.4-0.6,0.22-0.91l-4.69-7.8l-0.08-0.13l-0.05-0.08
		c-0.11-0.2-0.2-0.42-0.24-0.65c-0.07-0.32-0.07-0.64,0.01-0.97c0.13-0.59,0.48-1.09,0.98-1.41c0.49-0.32,1.08-0.43,1.65-0.31
		c0.47,0.1,0.89,0.36,1.19,0.73c0.06,0.08,0.12,0.16,0.18,0.25l0.32,0.54l4.43,7.37c0.1,0.16,0.25,0.26,0.42,0.3
		c0.17,0.04,0.35,0.01,0.51-0.09c0.3-0.2,0.4-0.6,0.22-0.91l-3.61-5.79l-0.05-0.08c-0.29-0.51-0.37-1.1-0.25-1.65
		c0.11-0.55,0.42-1.05,0.89-1.38c0.31-0.21,0.65-0.35,1-0.39c0.22-0.03,0.45-0.02,0.67,0.03c0.17,0.03,0.34,0.09,0.5,0.17
		C298.03,351.72,298.35,352.01,298.57,352.37"/>
	
		<path style="clip-path:url(#SVGID_00000129165911174372279600000015409033745456235956_);fill:none;stroke:#5692CE;stroke-miterlimit:10;" d="
		M298.57,352.37l1.86,2.97l0.99,1.58l4.8,7.74c0.07,0.11,0.15,0.24,0.22,0.36c0.05,0.08,0.1,0.17,0.15,0.26
		c0.43,0.77,0.9,1.7,1.39,2.73c0.13,0.27,0.26,0.56,0.39,0.85c0.08,0.18,0.17,0.37,0.25,0.56c1.38,3.07,2.79,6.64,3.77,9.11
		c0.44,1.12,0.75,1.88,0.93,2.31c0.1,0.24,0.25,0.46,0.44,0.65l2.29,2.29c-0.01,0.01-0.02,0.02-0.03,0.03
		c-0.03,0.03-0.07,0.07-0.1,0.1l-0.01,0.01l-0.07,0.08l-4.43,5.06l-1.21,1.44c-0.42,0.5-0.85,1-1.27,1.5
		c-0.46,0.54-0.91,1.07-1.37,1.61c-0.1,0.12-0.2,0.23-0.3,0.35c-0.42,0.49-0.85,1-1.26,1.53c-0.11,0.14-0.22,0.29-0.32,0.42
		c-0.14,0.19-0.28,0.38-0.42,0.54c-0.13-0.06-0.31-0.16-0.55-0.29c-0.09-0.05-0.17-0.1-0.25-0.14l-0.06-0.04
		c-0.27-0.17-1.03-1.04-1.24-1.42c-0.27-0.5-0.71-0.85-1.23-0.98c-1.41-1.73-2.38-2.96-2.68-3.39c-1.56-2.24-3.43-4.31-5.84-5.65
		c-1.72-0.95-3.59-1.6-5.46-2.19c-0.61-0.19-1.15-0.36-1.58-0.53c-1.21-0.4-2.59-1.56-2.83-2.24c-0.09-0.25-0.02-0.44,0.27-0.5
		c0.6-0.11,1.98-0.65,2.48-1.1c0.09-0.08,0.18-0.16,0.28-0.25c0.49-0.44,1.04-0.98,1.1-1.43c0.02-0.1,0.01-0.19-0.03-0.27
		c-0.26-0.63-0.69-1.17-1.07-1.73c-0.44-0.66-0.86-1.34-1.28-2.01c-0.72-1.15-1.42-2.31-2.14-3.47l-0.98-1.59l-3.44-5.77l-0.05-0.08
		c-0.02-0.04-0.04-0.07-0.06-0.11c-0.05-0.09-0.09-0.19-0.12-0.29l-0.02-0.08c-0.06-0.18-0.09-0.37-0.1-0.56
		c-0.01-0.19,0.01-0.39,0.05-0.58c0.01-0.03,0.02-0.07,0.03-0.1c0-0.02,0.01-0.04,0.02-0.06c0.11-0.35,0.29-0.66,0.53-0.92
		c0.13-0.14,0.26-0.24,0.4-0.33c0.18-0.12,0.37-0.2,0.56-0.26l0.06-0.01c0.7-0.19,1.42-0.02,1.95,0.43
		c0.17,0.14,0.32,0.32,0.45,0.52l0.14,0.23l5.07,8.39c0.1,0.16,0.25,0.26,0.43,0.3c0.17,0.04,0.35,0.01,0.5-0.09
		c0.3-0.2,0.4-0.6,0.22-0.91c-0.01-0.01-2.04-3.45-5.04-8.3c-0.16-0.26-0.32-0.53-0.49-0.79c-0.14-0.23-0.29-0.47-0.44-0.71
		l-0.05-0.08c-0.6-1.06-0.24-2.44,0.81-3.06c1.02-0.61,2.33-0.28,2.98,0.77l0.65,1.07l0.48,0.8l4.79,7.86
		c0.1,0.16,0.25,0.26,0.43,0.3c0.17,0.04,0.35,0.01,0.51-0.09c0.3-0.2,0.4-0.6,0.22-0.91l-4.69-7.8l-0.08-0.13l-0.05-0.08
		c-0.11-0.2-0.2-0.42-0.24-0.65c-0.07-0.32-0.07-0.64,0.01-0.97c0.13-0.59,0.48-1.09,0.98-1.41c0.49-0.32,1.08-0.43,1.65-0.31
		c0.47,0.1,0.89,0.36,1.19,0.73c0.06,0.08,0.12,0.16,0.18,0.25l0.32,0.54l4.43,7.37c0.1,0.16,0.25,0.26,0.42,0.3
		c0.17,0.04,0.35,0.01,0.51-0.09c0.3-0.2,0.4-0.6,0.22-0.91l-3.61-5.79l-0.05-0.08c-0.29-0.51-0.37-1.1-0.25-1.65
		c0.11-0.55,0.42-1.05,0.89-1.38c0.31-0.21,0.65-0.35,1-0.39c0.22-0.03,0.45-0.02,0.67,0.03c0.17,0.03,0.34,0.09,0.5,0.17
		C298.03,351.72,298.35,352.01,298.57,352.37"/>
	<path style="clip-path:url(#SVGID_00000129165911174372279600000015409033745456235956_);fill:#5692CE;" d="M298.03,360.92
		l0.01,0.01L298.03,360.92z M293.19,364.08L293.19,364.08L293.19,364.08z M286.91,376.33C286.91,376.33,286.91,376.34,286.91,376.33
		C286.91,376.34,286.91,376.33,286.91,376.33 M302.4,392.88c0.61,0.23,1.13,0.68,1.46,1.29c0.15,0.27,0.78,1,0.97,1.13l0.21,0.12
		c0.12-0.16,0.22-0.29,0.33-0.43c0.42-0.53,0.85-1.05,1.28-1.55l0.29-0.35c0.46-0.54,0.91-1.08,1.37-1.62l2.48-2.93l4.15-4.75
		l-1.76-1.75c-0.26-0.26-0.46-0.56-0.61-0.9c-0.18-0.43-0.49-1.2-0.94-2.33c-0.95-2.39-2.39-6.01-3.76-9.08l-0.64-1.39
		c-0.5-1.06-0.95-1.96-1.36-2.67l-0.14-0.25c-0.07-0.12-0.14-0.24-0.21-0.35l-7.65-12.3c-0.14-0.23-0.34-0.41-0.57-0.52
		c-0.1-0.05-0.2-0.08-0.32-0.1c-0.14-0.03-0.29-0.03-0.42-0.02c-0.23,0.03-0.44,0.11-0.64,0.25c-0.29,0.2-0.49,0.52-0.57,0.89
		c-0.08,0.37-0.02,0.76,0.17,1.09l3.65,5.84c0.4,0.71,0.19,1.58-0.47,2.01c-0.34,0.22-0.73,0.29-1.12,0.2
		c-0.37-0.08-0.7-0.31-0.92-0.64l-4.77-7.94c-0.03-0.05-0.07-0.1-0.11-0.15c-0.19-0.23-0.45-0.39-0.74-0.45
		c-0.36-0.08-0.73-0.01-1.04,0.19c-0.32,0.21-0.55,0.54-0.63,0.91c-0.05,0.21-0.05,0.42,0,0.63c0.03,0.14,0.08,0.28,0.16,0.41
		l4.8,7.99c0.39,0.69,0.18,1.55-0.46,1.99c-0.35,0.22-0.74,0.29-1.12,0.21c-0.38-0.08-0.71-0.31-0.93-0.65l-5.93-9.74
		c-0.41-0.66-1.24-0.88-1.89-0.5c-0.68,0.41-0.91,1.3-0.52,1.99l0.96,1.56c3.03,4.91,5.05,8.32,5.06,8.33
		c0.37,0.66,0.17,1.53-0.48,1.96c-0.34,0.22-0.74,0.29-1.12,0.21c-0.39-0.08-0.72-0.31-0.93-0.65l-5.22-8.64
		c-0.07-0.12-0.17-0.23-0.28-0.32c-0.34-0.29-0.79-0.39-1.23-0.27l-0.11,0.03c-0.05,0.02-0.17,0.08-0.29,0.15
		c-0.08,0.05-0.17,0.12-0.26,0.22c-0.15,0.16-0.27,0.37-0.34,0.59c-0.05,0.23-0.07,0.35-0.06,0.47c0,0.12,0.02,0.24,0.06,0.36
		l0.03,0.13c0,0,0.03,0.06,0.06,0.12l-0.66,0.46l0.73-0.33l6.77,11.14c0.35,0.56,0.69,1.11,1.05,1.65c0.09,0.13,0.18,0.26,0.27,0.39
		c0.32,0.45,0.65,0.92,0.88,1.48c0.09,0.21,0.11,0.45,0.08,0.69c-0.1,0.64-0.61,1.23-1.35,1.9l-0.29,0.26
		c-0.5,0.45-1.51,0.89-2.26,1.13c0.43,0.46,1.26,1.09,2.05,1.36c0.45,0.18,0.98,0.34,1.56,0.52c1.83,0.57,3.78,1.24,5.61,2.25
		c2.2,1.22,4.2,3.15,6.11,5.89C300.06,389.95,300.59,390.66,302.4,392.88 M305.47,397.44l-0.56-0.27c-0.14-0.07-0.34-0.17-0.6-0.32
		l-0.34-0.2c-0.42-0.26-1.26-1.25-1.52-1.72c-0.16-0.3-0.42-0.51-0.71-0.58l-0.26-0.06l-0.17-0.21c-1.03-1.27-2.34-2.89-2.72-3.44
		c-1.77-2.54-3.59-4.3-5.57-5.4c-1.7-0.94-3.56-1.58-5.31-2.12c-0.63-0.2-1.19-0.37-1.63-0.55c-1.36-0.45-2.95-1.76-3.29-2.72
		c-0.16-0.45-0.06-0.79,0.06-1c0.1-0.17,0.33-0.46,0.83-0.55c0.54-0.1,1.75-0.61,2.09-0.91l0.28-0.25c0.58-0.53,0.77-0.79,0.83-0.91
		c-0.17-0.36-0.41-0.7-0.66-1.06c-0.1-0.14-0.2-0.28-0.29-0.42c-0.37-0.56-0.73-1.13-1.08-1.7l-3.33-5.39l-3.59-6.04
		c-0.06-0.11-0.11-0.25-0.15-0.38l-0.04-0.13c-0.06-0.2-0.11-0.46-0.12-0.72c-0.01-0.25,0.01-0.52,0.07-0.78l0.04-0.16
		c0.16-0.52,0.4-0.95,0.73-1.3c0.18-0.19,0.36-0.33,0.55-0.45c0.24-0.15,0.49-0.27,0.75-0.35l0.14-0.03
		c0.78-0.22,1.66-0.07,2.36,0.4l-0.13-0.22c-0.82-1.46-0.33-3.32,1.08-4.16c1.4-0.84,3.19-0.39,4.08,1.03l0.54,0.89
		c-0.08-0.41-0.07-0.82,0.02-1.23c0.17-0.79,0.64-1.47,1.32-1.91c0.67-0.44,1.47-0.59,2.26-0.42c0.65,0.14,1.21,0.49,1.64,1
		c0.09,0.11,0.17,0.22,0.24,0.34l0.46,0.77c-0.02-0.27,0-0.55,0.06-0.82c0.16-0.77,0.59-1.43,1.22-1.87
		c0.41-0.29,0.89-0.47,1.37-0.53c0.3-0.04,0.61-0.02,0.92,0.04c0.24,0.05,0.48,0.13,0.69,0.23c0.5,0.24,0.94,0.62,1.24,1.11
		l7.65,12.3c0.07,0.12,0.15,0.25,0.23,0.38l0.15,0.26c0.43,0.76,0.9,1.69,1.42,2.79l0.65,1.42c1.39,3.1,2.83,6.73,3.79,9.14
		c0.44,1.11,0.74,1.86,0.92,2.29c0.06,0.15,0.15,0.28,0.27,0.39l2.87,2.87l-0.76,0.75l-6.9,7.99c-0.46,0.54-0.91,1.07-1.37,1.61
		l-0.29,0.35c-0.41,0.49-0.84,0.99-1.24,1.51c-0.1,0.13-0.2,0.26-0.29,0.38c-0.17,0.23-0.32,0.43-0.47,0.6L305.47,397.44z"/>
	
		<path style="clip-path:url(#SVGID_00000129165911174372279600000015409033745456235956_);fill:none;stroke:#5692CE;stroke-miterlimit:10;" d="
		M298.03,360.92l0.01,0.01L298.03,360.92z M293.19,364.08L293.19,364.08L293.19,364.08z M286.91,376.33
		C286.91,376.33,286.91,376.34,286.91,376.33C286.91,376.34,286.91,376.33,286.91,376.33z M302.4,392.88
		c0.61,0.23,1.13,0.68,1.46,1.29c0.15,0.27,0.78,1,0.97,1.13l0.21,0.12c0.12-0.16,0.22-0.29,0.33-0.43
		c0.42-0.53,0.85-1.05,1.28-1.55l0.29-0.35c0.46-0.54,0.91-1.08,1.37-1.62l2.48-2.93l4.15-4.75l-1.76-1.75
		c-0.26-0.26-0.46-0.56-0.61-0.9c-0.18-0.43-0.49-1.2-0.94-2.33c-0.95-2.39-2.39-6.01-3.76-9.08l-0.64-1.39
		c-0.5-1.06-0.95-1.96-1.36-2.67l-0.14-0.25c-0.07-0.12-0.14-0.24-0.21-0.35l-7.65-12.3c-0.14-0.23-0.34-0.41-0.57-0.52
		c-0.1-0.05-0.2-0.08-0.32-0.1c-0.14-0.03-0.29-0.03-0.42-0.02c-0.23,0.03-0.44,0.11-0.64,0.25c-0.29,0.2-0.49,0.52-0.57,0.89
		c-0.08,0.37-0.02,0.76,0.17,1.09l3.65,5.84c0.4,0.71,0.19,1.58-0.47,2.01c-0.34,0.22-0.73,0.29-1.12,0.2
		c-0.37-0.08-0.7-0.31-0.92-0.64l-4.77-7.94c-0.03-0.05-0.07-0.1-0.11-0.15c-0.19-0.23-0.45-0.39-0.74-0.45
		c-0.36-0.08-0.73-0.01-1.04,0.19c-0.32,0.21-0.55,0.54-0.63,0.91c-0.05,0.21-0.05,0.42,0,0.63c0.03,0.14,0.08,0.28,0.16,0.41
		l4.8,7.99c0.39,0.69,0.18,1.55-0.46,1.99c-0.35,0.22-0.74,0.29-1.12,0.21c-0.38-0.08-0.71-0.31-0.93-0.65l-5.93-9.74
		c-0.41-0.66-1.24-0.88-1.89-0.5c-0.68,0.41-0.91,1.3-0.52,1.99l0.96,1.56c3.03,4.91,5.05,8.32,5.06,8.33
		c0.37,0.66,0.17,1.53-0.48,1.96c-0.34,0.22-0.74,0.29-1.12,0.21c-0.39-0.08-0.72-0.31-0.93-0.65l-5.22-8.64
		c-0.07-0.12-0.17-0.23-0.28-0.32c-0.34-0.29-0.79-0.39-1.23-0.27l-0.11,0.03c-0.05,0.02-0.17,0.08-0.29,0.15
		c-0.08,0.05-0.17,0.12-0.26,0.22c-0.15,0.16-0.27,0.37-0.34,0.59c-0.05,0.23-0.07,0.35-0.06,0.47c0,0.12,0.02,0.24,0.06,0.36
		l0.03,0.13c0,0,0.03,0.06,0.06,0.12l-0.66,0.46l0.73-0.33l6.77,11.14c0.35,0.56,0.69,1.11,1.05,1.65c0.09,0.13,0.18,0.26,0.27,0.39
		c0.32,0.45,0.65,0.92,0.88,1.48c0.09,0.21,0.11,0.45,0.08,0.69c-0.1,0.64-0.61,1.23-1.35,1.9l-0.29,0.26
		c-0.5,0.45-1.51,0.89-2.26,1.13c0.43,0.46,1.26,1.09,2.05,1.36c0.45,0.18,0.98,0.34,1.56,0.52c1.83,0.57,3.78,1.24,5.61,2.25
		c2.2,1.22,4.2,3.15,6.11,5.89C300.06,389.95,300.59,390.66,302.4,392.88z M305.47,397.44l-0.56-0.27c-0.14-0.07-0.34-0.17-0.6-0.32
		l-0.34-0.2c-0.42-0.26-1.26-1.25-1.52-1.72c-0.16-0.3-0.42-0.51-0.71-0.58l-0.26-0.06l-0.17-0.21c-1.03-1.27-2.34-2.89-2.72-3.44
		c-1.77-2.54-3.59-4.3-5.57-5.4c-1.7-0.94-3.56-1.58-5.31-2.12c-0.63-0.2-1.19-0.37-1.63-0.55c-1.36-0.45-2.95-1.76-3.29-2.72
		c-0.16-0.45-0.06-0.79,0.06-1c0.1-0.17,0.33-0.46,0.83-0.55c0.54-0.1,1.75-0.61,2.09-0.91l0.28-0.25c0.58-0.53,0.77-0.79,0.83-0.91
		c-0.17-0.36-0.41-0.7-0.66-1.06c-0.1-0.14-0.2-0.28-0.29-0.42c-0.37-0.56-0.73-1.13-1.08-1.7l-3.33-5.39l-3.59-6.04
		c-0.06-0.11-0.11-0.25-0.15-0.38l-0.04-0.13c-0.06-0.2-0.11-0.46-0.12-0.72c-0.01-0.25,0.01-0.52,0.07-0.78l0.04-0.16
		c0.16-0.52,0.4-0.95,0.73-1.3c0.18-0.19,0.36-0.33,0.55-0.45c0.24-0.15,0.49-0.27,0.75-0.35l0.14-0.03
		c0.78-0.22,1.66-0.07,2.36,0.4l-0.13-0.22c-0.82-1.46-0.33-3.32,1.08-4.16c1.4-0.84,3.19-0.39,4.08,1.03l0.54,0.89
		c-0.08-0.41-0.07-0.82,0.02-1.23c0.17-0.79,0.64-1.47,1.32-1.91c0.67-0.44,1.47-0.59,2.26-0.42c0.65,0.14,1.21,0.49,1.64,1
		c0.09,0.11,0.17,0.22,0.24,0.34l0.46,0.77c-0.02-0.27,0-0.55,0.06-0.82c0.16-0.77,0.59-1.43,1.22-1.87
		c0.41-0.29,0.89-0.47,1.37-0.53c0.3-0.04,0.61-0.02,0.92,0.04c0.24,0.05,0.48,0.13,0.69,0.23c0.5,0.24,0.94,0.62,1.24,1.11
		l7.65,12.3c0.07,0.12,0.15,0.25,0.23,0.38l0.15,0.26c0.43,0.76,0.9,1.69,1.42,2.79l0.65,1.42c1.39,3.1,2.83,6.73,3.79,9.14
		c0.44,1.11,0.74,1.86,0.92,2.29c0.06,0.15,0.15,0.28,0.27,0.39l2.87,2.87l-0.76,0.75l-6.9,7.99c-0.46,0.54-0.91,1.07-1.37,1.61
		l-0.29,0.35c-0.41,0.49-0.84,0.99-1.24,1.51c-0.1,0.13-0.2,0.26-0.29,0.38c-0.17,0.23-0.32,0.43-0.47,0.6L305.47,397.44z"/>
	<path style="clip-path:url(#SVGID_00000129165911174372279600000015409033745456235956_);fill:#FFFFFF;" d="M296.27,449.34
		l-16.5,32.18c-0.6,1.18-2.14,1.49-3.15,0.65c-3.24-2.71-9.59-8.03-12.19-10.39c-0.7-0.63-0.88-1.66-0.43-2.5
		c0.32-0.6,13.63-26.4,14.24-27.43c0.02,0.01,0.03,0.02,0.04,0.02c1.11,0.61,2.04,1.08,2.84,1.45c0.1,0.05,0.19,0.09,0.28,0.12
		c0.14,0.06,0.28,0.12,0.43,0.18l8.44,3.44l1.73,0.7l3.25,1.31C295.59,449.22,295.92,449.3,296.27,449.34"/>
	<path style="clip-path:url(#SVGID_00000129165911174372279600000015409033745456235956_);fill:#FFFFFF;" d="M318.33,399.5
		c0.02,0.18,0.1,0.34,0.24,0.45c0.29,0.23,0.7,0.19,0.94-0.07l5.97-6.87l0.1-0.11l0.06-0.07c0.16-0.17,0.34-0.32,0.54-0.43
		c0.28-0.16,0.59-0.26,0.92-0.29c0.6-0.06,1.18,0.12,1.64,0.49c0.46,0.37,0.74,0.89,0.8,1.47c0.05,0.48-0.07,0.95-0.32,1.36
		c-0.05,0.09-0.11,0.17-0.18,0.25l-0.41,0.47l-5.64,6.49c-0.12,0.14-0.17,0.32-0.15,0.5c0.02,0.18,0.1,0.34,0.24,0.45
		c0.28,0.23,0.69,0.2,0.94-0.07l4.39-5.23l0.06-0.07c0.4-0.44,0.94-0.69,1.49-0.75c0.55-0.06,1.12,0.08,1.59,0.42
		c0.3,0.22,0.53,0.51,0.68,0.83c0.09,0.2,0.15,0.42,0.18,0.65c0.02,0.18,0.02,0.35,0,0.53v0c-0.05,0.41-0.22,0.79-0.5,1.12
		l-2.25,2.69l-1.2,1.43l-5.88,6.96c-0.09,0.1-0.18,0.21-0.28,0.32c-0.06,0.07-0.13,0.15-0.2,0.22c-0.6,0.65-1.34,1.38-2.17,2.16
		c-0.22,0.21-0.45,0.42-0.68,0.63c-0.15,0.14-0.3,0.27-0.46,0.41c-2.5,2.26-5.45,4.71-7.49,6.4c-0.93,0.77-1.55,1.29-1.91,1.6
		c-0.2,0.17-0.36,0.38-0.48,0.62l-1.47,2.89c-0.06-0.03-0.12-0.06-0.18-0.09l-6.28-2.69l-1.75-0.71c-0.6-0.24-1.2-0.49-1.79-0.74
		c-0.66-0.27-1.32-0.54-1.98-0.81l-0.36-0.15c-0.62-0.25-1.26-0.51-1.9-0.75c-0.17-0.06-0.34-0.12-0.5-0.18
		c-0.23-0.08-0.45-0.15-0.64-0.23c0.02-0.12,0.04-0.27,0.08-0.48l0.03-0.14c0.01-0.07,0.03-0.14,0.04-0.2
		c0.01-0.05,0.02-0.11,0.03-0.16c0.08-0.32,0.67-1.29,0.97-1.61c0.4-0.43,0.59-0.95,0.55-1.47l0,0c1.21-1.87,2.08-3.18,2.39-3.6
		c1.65-2.17,3.04-4.6,3.56-7.3c0.38-1.93,0.42-3.91,0.39-5.87c-0.01-0.64-0.02-1.2,0.01-1.67c0.01-1.28,0.69-2.95,1.26-3.39
		c0.21-0.16,0.41-0.16,0.56,0.11c0.29,0.54,1.24,1.68,1.82,2.02c0.1,0.06,0.21,0.12,0.33,0.19c0.57,0.33,1.26,0.68,1.7,0.61
		c0.09-0.02,0.18-0.05,0.25-0.11c0.52-0.44,0.9-1.02,1.32-1.55c0.49-0.62,1.01-1.23,1.52-1.84c0.88-1.04,1.76-2.07,2.64-3.11
		l1.2-1.42l4.42-5.05l0.06-0.07c0.03-0.03,0.06-0.06,0.09-0.09c0.07-0.07,0.15-0.14,0.24-0.2l0.07-0.04
		c0.16-0.11,0.33-0.2,0.51-0.26c0.18-0.07,0.37-0.11,0.57-0.13c0.03,0,0.07-0.01,0.1-0.01c0.02,0,0.04,0,0.06,0v0
		c0.37-0.01,0.72,0.07,1.04,0.22c0.17,0.08,0.31,0.17,0.44,0.28c0.17,0.14,0.31,0.29,0.42,0.45l0.03,0.05
		c0.4,0.61,0.46,1.35,0.2,1.99c-0.08,0.21-0.2,0.41-0.36,0.59l-0.17,0.2l-6.41,7.42c-0.12,0.15-0.17,0.32-0.16,0.5
		c0.02,0.18,0.11,0.34,0.24,0.45c0.28,0.22,0.69,0.19,0.93-0.07c0.01-0.01,2.65-3.01,6.34-7.36c0.2-0.23,0.4-0.47,0.6-0.71
		c0.18-0.21,0.36-0.42,0.54-0.64l0.06-0.07c0.82-0.9,2.24-0.98,3.16-0.18c0.9,0.78,0.99,2.13,0.19,3.07l-0.81,0.95l-0.61,0.71l0,0
		l-6,6.98C318.37,399.15,318.31,399.32,318.33,399.5"/>
	<path style="clip-path:url(#SVGID_00000129165911174372279600000015409033745456235956_);fill:#FFFFFF;" d="M240.43,409.25
		c0,0.02-0.01,0.03-0.01,0.05c-0.23,1.22-0.4,2.28-0.5,3.13c-0.01,0.11-0.03,0.22-0.04,0.33c-0.02,0.15-0.03,0.3-0.04,0.46
		l-0.66,9.09l-0.13,1.86l-0.24,3.49c-0.02,0.35,0,0.7,0.07,1.04l-32.81-5.27c-1.3-0.2-2.08-1.57-1.59-2.8
		c1.58-3.92,4.68-11.6,6.11-14.8c0.39-0.86,1.31-1.35,2.24-1.18C213.5,404.78,239.26,408.99,240.43,409.25"/>
	<path style="clip-path:url(#SVGID_00000129165911174372279600000015409033745456235956_);fill:#FFFFFF;" d="M307.47,429.35
		c0.12,0.15,0.22,0.32,0.3,0.5c0.01,0.03,0.03,0.07,0.04,0.1c0,0.01,0.01,0.02,0.01,0.03c0.13,0.35,0.17,0.72,0.12,1.08
		c-0.03,0.19-0.07,0.35-0.13,0.5c-0.08,0.2-0.18,0.38-0.3,0.54l-0.04,0.04c-0.45,0.57-1.14,0.85-1.83,0.8
		c-0.23-0.02-0.45-0.07-0.67-0.15l-0.24-0.1l-9.04-3.81c-0.17-0.07-0.36-0.07-0.52,0.01c-0.16,0.07-0.29,0.2-0.35,0.37
		c-0.13,0.34,0.03,0.72,0.35,0.86c0.02,0.01,3.68,1.59,8.96,3.76c0.28,0.12,0.57,0.23,0.86,0.35c0.26,0.1,0.51,0.21,0.78,0.32
		l0.08,0.04c1.11,0.51,1.62,1.83,1.14,2.95c-0.46,1.1-1.72,1.6-2.86,1.13l-1.15-0.48l-0.86-0.36l-8.49-3.55
		c-0.17-0.07-0.36-0.06-0.52,0.01c-0.16,0.07-0.29,0.2-0.36,0.37c-0.12,0.34,0.03,0.72,0.35,0.87l8.38,3.56l0.14,0.06l0.09,0.04
		c0.21,0.1,0.41,0.23,0.58,0.38c0.24,0.21,0.43,0.48,0.56,0.78c0.24,0.55,0.25,1.16,0.04,1.71c-0.21,0.55-0.62,0.98-1.15,1.22
		c-0.44,0.19-0.93,0.23-1.39,0.11c-0.1-0.03-0.2-0.06-0.29-0.1l-0.58-0.24l-7.91-3.36c-0.17-0.07-0.36-0.07-0.52,0.01
		c-0.16,0.07-0.29,0.2-0.36,0.37c-0.13,0.34,0.02,0.72,0.35,0.87l6.33,2.56l0.09,0.04c0.54,0.25,0.95,0.68,1.17,1.18
		c0.23,0.51,0.27,1.09,0.09,1.64c-0.12,0.35-0.32,0.66-0.59,0.9v0c-0.16,0.15-0.35,0.27-0.56,0.37c-0.16,0.07-0.33,0.13-0.5,0.16
		c-0.4,0.08-0.82,0.04-1.22-0.12l-3.25-1.31l-1.73-0.7l-8.44-3.44c-0.12-0.05-0.26-0.11-0.39-0.17c-0.09-0.04-0.18-0.08-0.27-0.12
		c-0.8-0.37-1.73-0.85-2.73-1.39c-0.27-0.15-0.54-0.3-0.81-0.45c-0.18-0.1-0.35-0.2-0.53-0.3c-2.92-1.68-6.16-3.73-8.41-5.15
		c-1.02-0.64-1.7-1.08-2.11-1.32c-0.23-0.14-0.48-0.23-0.74-0.27l-3.2-0.5c0.01-0.05,0.02-0.11,0.02-0.16l0.01-0.03l0.62-6.8
		l0.14-1.89c0.05-0.68,0.1-1.35,0.15-2.03c0.05-0.68,0.1-1.36,0.15-2.04l0.03-0.41c0.05-0.66,0.1-1.34,0.12-2.02
		c0.01-0.18,0.01-0.36,0.01-0.54c0-0.24,0.01-0.46,0.02-0.68c0.14-0.03,0.34-0.06,0.62-0.09c0.12-0.01,0.24-0.03,0.36-0.04
		c0.32-0.02,1.44,0.24,1.84,0.43c0.53,0.25,1.09,0.27,1.57,0.07c2.15,0.57,3.66,0.99,4.16,1.17c2.57,0.9,5.31,1.47,8.04,1.13
		c1.95-0.24,3.85-0.81,5.7-1.44c0.6-0.2,1.14-0.39,1.59-0.5c1.22-0.39,3.02-0.26,3.61,0.15c0.22,0.15,0.27,0.35,0.07,0.56
		c-0.42,0.45-1.22,1.7-1.36,2.35c-0.02,0.12-0.05,0.24-0.08,0.37h0c-0.13,0.64-0.26,1.4-0.05,1.81c0.04,0.09,0.1,0.15,0.18,0.2
		c0.58,0.36,1.25,0.54,1.88,0.77c0.75,0.27,1.48,0.58,2.22,0.88c1.26,0.51,2.51,1.04,3.77,1.55l1.73,0.7l6.17,2.64l0.08,0.04
		c0.04,0.02,0.07,0.04,0.11,0.05c0.09,0.05,0.18,0.1,0.26,0.16l0.06,0.05C307.21,429.06,307.35,429.19,307.47,429.35"/>
	<path style="clip-path:url(#SVGID_00000129165911174372279600000015409033745456235956_);fill:#FFFFFF;" d="M260.85,388.18
		c0.07,0.13,0.16,0.3,0.27,0.55c0.03,0.08,0.15,0.34,0.15,0.34c0.12,0.3,0.22,1.44,0.17,1.88c-0.08,0.57,0.08,1.11,0.42,1.51l0,0
		c0.12,2.22,0.19,3.8,0.18,4.32c-0.06,2.72,0.24,5.51,1.41,8c0.83,1.78,1.96,3.41,3.13,4.98c0.38,0.51,0.72,0.97,0.97,1.36
		c0.74,1.04,1.18,2.79,0.97,3.48c-0.08,0.26-0.24,0.37-0.51,0.24c-0.55-0.26-1.99-0.64-2.65-0.57c-0.12,0.01-0.25,0.03-0.38,0.04
		c-0.65,0.07-1.42,0.19-1.73,0.51c-0.07,0.07-0.11,0.15-0.14,0.24c-0.16,0.66-0.12,1.35-0.15,2.03c-0.03,0.79-0.09,1.59-0.15,2.38
		c-0.1,1.36-0.21,2.71-0.31,4.07l-0.14,1.86l-0.61,6.69l-0.01,0.09c-0.01,0.04-0.01,0.08-0.02,0.12c-0.02,0.1-0.04,0.2-0.07,0.3
		l-0.03,0.07c-0.06,0.18-0.15,0.35-0.26,0.51c-0.1,0.16-0.23,0.31-0.38,0.44c-0.03,0.02-0.05,0.04-0.08,0.07
		c-0.01,0.01-0.02,0.01-0.03,0.02c-0.3,0.23-0.63,0.38-0.99,0.45c-0.19,0.03-0.35,0.04-0.51,0.03c-0.21-0.01-0.42-0.05-0.61-0.12
		l-0.05-0.02c-0.68-0.26-1.16-0.82-1.33-1.49c-0.05-0.22-0.07-0.45-0.06-0.69l0.02-0.26l0.83-9.77c0.01-0.19-0.05-0.36-0.17-0.5
		c-0.12-0.13-0.28-0.21-0.46-0.22c-0.36-0.01-0.67,0.25-0.71,0.6c0,0.02-0.38,3.99-0.81,9.68c-0.02,0.31-0.05,0.62-0.07,0.93
		c-0.02,0.27-0.04,0.55-0.06,0.83l-0.01,0.09c-0.14,1.21-1.24,2.11-2.45,2c-1.19-0.1-2.05-1.15-1.96-2.37l0.1-1.24l0.08-0.93
		l0.75-9.17c0.01-0.19-0.05-0.36-0.17-0.49c-0.12-0.14-0.28-0.21-0.46-0.23c-0.36-0.01-0.68,0.25-0.72,0.61l-0.79,9.07l-0.01,0.15
		l-0.01,0.09c-0.03,0.23-0.09,0.46-0.18,0.67c-0.13,0.29-0.33,0.56-0.57,0.78c-0.45,0.4-1.02,0.6-1.62,0.57
		c-0.59-0.03-1.13-0.29-1.51-0.72c-0.32-0.36-0.5-0.81-0.54-1.29c-0.01-0.1-0.01-0.2,0-0.3l0.05-0.63l0.75-8.57
		c0.01-0.18-0.05-0.36-0.17-0.49c-0.12-0.13-0.28-0.21-0.46-0.22c-0.36-0.02-0.68,0.24-0.72,0.61l-0.48,6.81l-0.01,0.09
		c-0.07,0.59-0.35,1.11-0.76,1.48c-0.41,0.38-0.96,0.6-1.54,0.59c-0.37-0.01-0.73-0.1-1.04-0.28c-0.2-0.11-0.37-0.25-0.53-0.42
		c-0.12-0.13-0.22-0.27-0.31-0.43c-0.2-0.36-0.29-0.77-0.26-1.2l0.24-3.5l0.13-1.86l0.66-9.08c0.01-0.13,0.02-0.28,0.04-0.43
		c0.01-0.1,0.02-0.19,0.03-0.3c0.1-0.87,0.27-1.91,0.48-3.02c0.06-0.3,0.12-0.6,0.18-0.91c0.04-0.2,0.08-0.4,0.12-0.6
		c0.69-3.3,1.64-7.01,2.3-9.59c0.3-1.17,0.5-1.96,0.6-2.41c0.06-0.26,0.07-0.52,0.02-0.78l-0.51-3.2c0.05-0.01,0.11-0.02,0.17-0.03
		l0.02-0.01l6.68-1.52l1.83-0.45c0.66-0.16,1.32-0.32,1.97-0.48c0.66-0.16,1.33-0.32,1.99-0.48l0.4-0.1
		c0.64-0.16,1.3-0.32,1.96-0.51c0.17-0.05,0.34-0.1,0.51-0.15C260.42,388.3,260.64,388.23,260.85,388.18"/>
	<path style="clip-path:url(#SVGID_00000129165911174372279600000015409033745456235956_);fill:#FFFFFF;" d="M256.06,337.9
		c0.09,0.67,3.58,24.12,3.69,25.32c-0.02,0-0.03,0-0.05,0.01c-1.23,0.15-2.29,0.32-3.14,0.49l-0.1,0.02
		c-0.07,0.01-0.15,0.03-0.21,0.04c-0.16,0.03-0.31,0.07-0.46,0.11l-8.85,2.18l-1.81,0.45l-3.4,0.85c-0.34,0.08-0.66,0.21-0.96,0.39
		l-4.66-30.48c-0.21-1.3,0.85-2.46,2.17-2.37c4.22,0.29,12.48,0.86,15.97,1.24C255.19,336.24,255.94,336.96,256.06,337.9"/>
	<path style="clip-path:url(#SVGID_00000129165911174372279600000015409033745456235956_);fill:#FFFFFF;" d="M277.38,361.94
		c0.03,0.06,0.06,0.11,0.09,0.17l0.01,0.01l3.5,5.86l1,1.61c0.36,0.58,0.71,1.16,1.07,1.73c0.36,0.58,0.71,1.16,1.07,1.74l0.23,0.36
		c0.34,0.56,0.7,1.13,1.08,1.69c0.1,0.15,0.2,0.3,0.3,0.43c0.14,0.2,0.27,0.38,0.39,0.57c-0.03,0.03-0.07,0.07-0.11,0.11
		c-0.12,0.12-0.25,0.24-0.33,0.32c-0.07,0.06-0.14,0.13-0.21,0.18l-0.07,0.06c-0.25,0.21-1.3,0.65-1.74,0.74
		c-0.41,0.08-0.77,0.26-1.04,0.53c-0.1,0.1-0.19,0.21-0.26,0.33c-2.08,0.8-3.55,1.35-4.05,1.5c-2.61,0.79-5.16,1.93-7.17,3.81
		c-1.44,1.34-2.63,2.92-3.77,4.52c-0.37,0.52-0.7,0.98-0.99,1.34c-0.76,1.03-2.29,1.98-3.01,2c-0.27,0.01-0.42-0.12-0.39-0.42
		c0.08-0.61-0.01-2.09-0.28-2.7c-0.05-0.11-0.1-0.23-0.15-0.35c-0.27-0.6-0.61-1.29-1.02-1.49c-0.09-0.04-0.18-0.06-0.27-0.06
		c-0.68,0.05-1.33,0.3-1.98,0.48c-0.77,0.22-1.54,0.4-2.31,0.59c-1.32,0.33-2.64,0.64-3.96,0.97l-1.81,0.44l-6.55,1.49l-0.09,0.02
		c-0.04,0.01-0.08,0.02-0.12,0.02c-0.1,0.02-0.21,0.02-0.31,0.02l-0.08-0.01c-0.19,0-0.38-0.03-0.57-0.08
		c-0.19-0.05-0.36-0.13-0.53-0.23c-0.03-0.02-0.06-0.04-0.09-0.06c-0.02-0.01-0.03-0.02-0.05-0.03c-0.3-0.21-0.54-0.48-0.71-0.79
		c-0.09-0.17-0.15-0.32-0.19-0.48c-0.05-0.21-0.08-0.42-0.08-0.62l0.01-0.06c0.04-0.73,0.42-1.36,1.01-1.73
		c0.19-0.12,0.4-0.21,0.63-0.27l0.26-0.06l9.55-2.23c0.18-0.05,0.33-0.16,0.42-0.31c0.09-0.15,0.11-0.33,0.07-0.51
		c-0.1-0.35-0.45-0.56-0.79-0.49c-0.02,0-3.91,0.88-9.45,2.23c-0.3,0.07-0.6,0.14-0.91,0.22c-0.27,0.07-0.54,0.13-0.81,0.2
		l-0.09,0.02c-1.2,0.24-2.39-0.53-2.66-1.72c-0.27-1.16,0.46-2.3,1.65-2.6l1.21-0.29l0.91-0.21l8.96-2.12
		c0.18-0.05,0.33-0.16,0.42-0.31c0.09-0.15,0.11-0.33,0.07-0.51c-0.1-0.35-0.45-0.57-0.8-0.49l-8.87,2.05l-0.15,0.03l-0.09,0.02
		c-0.23,0.05-0.46,0.06-0.69,0.03c-0.32-0.03-0.63-0.13-0.92-0.3c-0.52-0.3-0.89-0.79-1.04-1.36c-0.15-0.57-0.08-1.16,0.22-1.66
		c0.24-0.42,0.61-0.73,1.06-0.91c0.09-0.04,0.19-0.07,0.29-0.1l0.61-0.14l8.38-1.93c0.18-0.05,0.33-0.16,0.42-0.31
		c0.09-0.15,0.12-0.34,0.07-0.51c-0.09-0.35-0.44-0.57-0.8-0.49l-6.62,1.65l-0.09,0.02c-0.58,0.12-1.16,0.01-1.64-0.27
		c-0.48-0.28-0.86-0.73-1.04-1.28c-0.11-0.36-0.13-0.72-0.06-1.07c0.04-0.22,0.12-0.43,0.24-0.63c0.09-0.15,0.19-0.3,0.31-0.42
		c0.28-0.3,0.65-0.51,1.06-0.61l3.4-0.85l1.81-0.45l8.85-2.18c0.13-0.03,0.27-0.06,0.42-0.1c0.1-0.02,0.19-0.04,0.29-0.06
		c0.86-0.18,1.89-0.33,3.02-0.47c0.3-0.04,0.61-0.08,0.92-0.11c0.2-0.02,0.4-0.04,0.61-0.07c3.35-0.36,7.18-0.61,9.83-0.78
		c1.2-0.08,2.01-0.13,2.48-0.17c0.26-0.02,0.52-0.1,0.75-0.22L277.38,361.94z"/>
	<path style="clip-path:url(#SVGID_00000129165911174372279600000015409033745456235956_);fill:#FFFFFF;" d="M347.25,328.85
		c1.03,4.1,3.03,12.14,3.75,15.57c0.2,0.93-0.27,1.86-1.12,2.27c-0.61,0.3-39.28,20.2-40.38,20.68c-0.01-0.02-0.01-0.03-0.02-0.05
		c-0.54-1.15-1.01-2.07-1.44-2.84c-0.05-0.09-0.1-0.18-0.15-0.27l-0.01-0.01c-0.08-0.14-0.16-0.27-0.24-0.39l-4.8-7.74l-0.99-1.59
		l-1.86-2.97c-0.19-0.3-0.41-0.57-0.67-0.8l45-23.2C345.5,326.92,346.93,327.57,347.25,328.85"/>
	<path style="clip-path:url(#SVGID_00000129165911174372279600000015409033745456235956_);fill:#FFFFFF;" d="M370.84,438.29
		c0.93,0.93,0.76,2.49-0.36,3.2c-3.58,2.25-10.6,6.64-13.64,8.38c-0.82,0.47-1.86,0.32-2.51-0.36c-0.47-0.49-32.6-32.64-33.39-33.54
		c0.01-0.01,0.02-0.02,0.04-0.04c0.47-0.44,0.91-0.86,1.29-1.24c0.36-0.36,0.68-0.69,0.96-1c0.07-0.08,0.15-0.16,0.21-0.23
		c0.1-0.11,0.21-0.23,0.31-0.35l5.88-6.96l1.21-1.43l2.25-2.69c0.23-0.27,0.41-0.57,0.55-0.88L370.84,438.29z"/>
	<path style="clip-path:url(#SVGID_00000129165911174372279600000015409033745456235956_);fill:#FFFFFF;" d="M298.69,352.33
		l1.86,2.97l0.99,1.58l4.8,7.74c0.07,0.11,0.15,0.24,0.22,0.36c0.05,0.08,0.1,0.17,0.15,0.26c0.43,0.77,0.9,1.7,1.39,2.73
		c0.13,0.27,0.26,0.56,0.39,0.85c0.08,0.18,0.17,0.37,0.25,0.56c1.38,3.07,2.79,6.64,3.77,9.11c0.44,1.12,0.75,1.88,0.93,2.31
		c0.1,0.24,0.25,0.46,0.44,0.65l2.29,2.29c-0.01,0.01-0.02,0.02-0.03,0.03c-0.03,0.03-0.07,0.07-0.1,0.1l-0.01,0.01l-0.07,0.08
		l-4.43,5.06l-1.21,1.44c-0.42,0.5-0.85,1-1.27,1.5c-0.46,0.54-0.91,1.07-1.37,1.61c-0.1,0.12-0.2,0.23-0.3,0.35
		c-0.42,0.49-0.85,1-1.26,1.53c-0.11,0.14-0.22,0.29-0.32,0.42c-0.14,0.19-0.28,0.38-0.42,0.54c-0.13-0.06-0.31-0.16-0.55-0.29
		c-0.09-0.05-0.17-0.1-0.25-0.14l-0.06-0.04c-0.27-0.17-1.03-1.04-1.24-1.42c-0.27-0.5-0.71-0.85-1.23-0.98
		c-1.41-1.73-2.38-2.96-2.68-3.39c-1.56-2.24-3.43-4.31-5.84-5.65c-1.72-0.95-3.59-1.6-5.46-2.19c-0.61-0.19-1.15-0.36-1.58-0.53
		c-1.21-0.4-2.59-1.56-2.83-2.24c-0.09-0.25-0.02-0.44,0.27-0.5c0.6-0.11,1.98-0.65,2.48-1.1c0.09-0.08,0.18-0.16,0.28-0.25
		c0.49-0.44,1.04-0.98,1.1-1.43c0.02-0.1,0.01-0.19-0.03-0.27c-0.26-0.63-0.69-1.17-1.07-1.73c-0.44-0.66-0.86-1.34-1.28-2.01
		c-0.72-1.15-1.42-2.31-2.14-3.47l-0.98-1.59l-3.44-5.77l-0.05-0.08c-0.02-0.04-0.04-0.07-0.06-0.11c-0.05-0.09-0.09-0.19-0.12-0.29
		l-0.02-0.08c-0.06-0.18-0.09-0.37-0.1-0.56c-0.01-0.19,0.01-0.39,0.05-0.58c0.01-0.03,0.02-0.07,0.03-0.1
		c0-0.02,0.01-0.04,0.02-0.06c0.11-0.35,0.29-0.66,0.53-0.92c0.13-0.14,0.26-0.24,0.4-0.33c0.18-0.12,0.37-0.2,0.56-0.26l0.06-0.01
		c0.7-0.19,1.42-0.02,1.95,0.43c0.17,0.14,0.32,0.32,0.45,0.52l0.14,0.23l5.07,8.39c0.1,0.16,0.25,0.26,0.43,0.3
		c0.17,0.04,0.35,0.01,0.5-0.09c0.3-0.2,0.4-0.6,0.22-0.91c-0.01-0.01-2.04-3.45-5.04-8.3c-0.16-0.26-0.32-0.53-0.49-0.79
		c-0.14-0.23-0.29-0.47-0.44-0.71l-0.05-0.08c-0.6-1.06-0.24-2.44,0.81-3.06c1.02-0.61,2.33-0.28,2.98,0.77l0.65,1.07l0.48,0.8
		l4.79,7.86c0.1,0.16,0.25,0.26,0.43,0.3c0.17,0.04,0.35,0.01,0.51-0.09c0.3-0.2,0.4-0.6,0.22-0.91l-4.69-7.8l-0.08-0.13l-0.05-0.08
		c-0.11-0.2-0.2-0.42-0.24-0.65c-0.07-0.32-0.07-0.64,0.01-0.97c0.13-0.59,0.48-1.09,0.98-1.41c0.49-0.32,1.08-0.43,1.65-0.31
		c0.47,0.1,0.89,0.36,1.19,0.73c0.06,0.08,0.12,0.16,0.18,0.25l0.32,0.54l4.43,7.37c0.1,0.16,0.25,0.26,0.42,0.3
		c0.17,0.04,0.35,0.01,0.51-0.09c0.3-0.2,0.4-0.6,0.22-0.91l-3.61-5.79l-0.05-0.08c-0.29-0.51-0.37-1.1-0.25-1.65
		c0.11-0.55,0.42-1.05,0.89-1.38c0.31-0.21,0.65-0.35,1-0.39c0.22-0.03,0.45-0.02,0.67,0.03c0.17,0.03,0.34,0.09,0.5,0.17
		C298.15,351.69,298.46,351.97,298.69,352.33"/>
</g>
<g>
</g>
<g>
</g>
<g>
</g>
<g>
</g>
<g>
</g>
<g>
</g>
</svg>
